<?xml version="1.0" encoding="UTF-8"?>
<svg width="21px" height="19px" viewBox="0 0 21 19" version="1.1" xmlns="http://www.w3.org/2000/svg" xmlns:xlink="http://www.w3.org/1999/xlink">
    <title>heart-icon</title>
    <g id="Page-1" stroke="none" stroke-width="1" fill="none" fill-rule="evenodd">
        <g id="heart-icon" transform="translate(1.121000, 1.707890)">
            <path d="M0.407854236,1.77785167 C2.12667053,0.988769197 4.09174782,0.386579385 6.61960526,0.305020043 C7.289331,0.283411867 8.50964033,1.4627235 9.16665,1.29803406 C12.2796873,0.51770399 15.178775,0.964994738 17.1408601,0.965929295 C18.5122839,4.53499856 18.5122839,7.66984585 17.1408601,10.3704712 C15.7694363,13.0710965 13.1113662,15.1705547 9.16665,16.6688457 C4.12136618,14.9157953 1.61021726,12.7761998 0.566057878,7.60973575 C0.256361519,6.07736899 0.624575938,3.78922259 0.407854236,1.77785167 Z" id="Rectangle" fill-opacity="0.82" fill="#E93737" fill-rule="nonzero"></path>
            <path d="M9.735,16.23421 C9.4233,16.34421 8.91,16.34421 8.5983,16.23421 C5.94,15.32671 0,11.54081 0,5.12421 C0,2.29171 2.2825,0 5.0967,0 C6.765,0 8.2408,0.80666 9.1667,2.05331 C10.0925,0.80666 11.5775,0 13.2367,0 C16.0508,0 18.3333,2.29171 18.3333,5.12421 C18.3333,11.54081 12.3933,15.32671 9.735,16.23421 Z" id="Path" stroke="#ED5B5B" stroke-width="1.8" stroke-linecap="round" stroke-linejoin="round"></path>
        </g>
    </g>
</svg>