<svg width="36" height="36" viewBox="0 0 36 36" fill="none" xmlns="http://www.w3.org/2000/svg">
<path d="M29.1369 6.87213C27.677 5.39779 25.9402 4.22643 24.0263 3.42535C22.1123 2.62427 20.0589 2.20926 17.9841 2.20415C15.9092 2.19904 13.8538 2.60394 11.936 3.39559C10.0181 4.18724 8.27552 5.35003 6.80838 6.81717C5.34124 8.28431 4.17845 10.0269 3.3868 11.9447C2.59516 13.8626 2.19025 15.918 2.19536 17.9929C2.20047 20.0677 2.61548 22.1211 3.41656 24.035C4.21764 25.949 5.389 27.6858 6.86334 29.1457C8.32323 30.6201 10.0601 31.7914 11.974 32.5925C13.888 33.3936 15.9414 33.8086 18.0162 33.8137C20.091 33.8188 22.1464 33.4139 24.0643 32.6223C25.9822 31.8306 27.7248 30.6678 29.1919 29.2007C30.659 27.7335 31.8218 25.991 32.6135 24.0731C33.4051 22.1552 33.81 20.0998 33.8049 18.025C33.7998 15.9501 33.3848 13.8968 32.5837 11.9828C31.7826 10.0688 30.6113 8.33202 29.1369 6.87213ZM4.50013 18.0089C4.4996 16.8141 4.65802 15.6245 4.97123 14.4715C5.48732 15.5824 6.23685 16.5422 6.74662 17.682C7.40545 19.1473 9.17451 18.7409 9.95568 20.0248C10.649 21.1645 9.90857 22.606 10.4275 23.7985C10.8044 24.664 11.6931 24.8531 12.3062 25.486C12.9327 26.1244 12.9194 26.9991 13.015 27.8316C13.1228 28.8097 13.2978 29.7793 13.5388 30.7334C13.5388 30.7404 13.5388 30.7481 13.5444 30.7552C8.28295 28.9074 4.50013 23.892 4.50013 18.0089ZM18.0001 31.5089C17.2462 31.5087 16.4936 31.4457 15.7501 31.3205C15.7579 31.1299 15.7614 30.952 15.7804 30.8283C15.9512 29.7103 16.5109 28.617 17.2661 27.7803C18.0121 26.9548 19.0344 26.3965 19.6644 25.4599C20.2818 24.5459 20.4667 23.3154 20.2122 22.2474C19.8374 20.6695 17.6936 20.1429 16.5376 19.2872C15.8732 18.795 15.2819 18.0342 14.4093 17.9724C14.0071 17.9442 13.6703 18.0307 13.2716 17.9281C12.906 17.8331 12.6191 17.6363 12.2296 17.6876C11.5019 17.7832 11.0427 18.5609 10.2608 18.4554C9.51904 18.3563 8.75474 17.4879 8.58599 16.7813C8.36943 15.8728 9.08802 15.5782 9.85795 15.4974C10.1793 15.4636 10.54 15.427 10.8486 15.5452C11.2551 15.6956 11.447 16.0936 11.8119 16.2947C12.4961 16.6702 12.6346 16.0704 12.5298 15.4629C12.373 14.5531 12.1902 14.1825 13.0016 13.556C13.5641 13.1243 14.0451 12.8121 13.9551 12.0366C13.9016 11.581 13.652 11.3749 13.8847 10.9214C14.0612 10.5762 14.5457 10.2647 14.8614 10.0587C15.6763 9.52713 18.3524 9.5665 17.259 8.07869C16.9377 7.64205 16.345 6.86158 15.7825 6.7547C15.0794 6.62181 14.7672 7.4065 14.2771 7.75244C13.7708 8.11033 12.7851 8.51674 12.2781 7.96338C11.5961 7.21877 12.7302 6.97478 12.9812 6.45447C13.0972 6.21189 12.9812 5.87509 12.7858 5.55799C13.0394 5.45111 13.2972 5.35197 13.5592 5.26056C13.7234 5.38185 13.9182 5.45491 14.1217 5.4715C14.5921 5.50244 15.0358 5.24791 15.4464 5.56853C15.902 5.92009 16.2304 6.36447 16.8351 6.47416C17.4201 6.58033 18.0395 6.23931 18.1844 5.64025C18.2722 5.27603 18.1844 4.89142 18.1 4.51525C20.7297 4.53038 23.297 5.31793 25.4828 6.78002C25.3422 6.72658 25.1741 6.73291 24.9667 6.82924C24.5399 7.02752 23.9352 7.53236 23.8853 8.03299C23.8283 8.60111 24.6665 8.68127 25.0644 8.68127C25.6621 8.68127 26.2675 8.41408 26.0748 7.72361C25.9911 7.42408 25.8772 7.1126 25.6937 6.92416C26.1349 7.23023 26.5575 7.56222 26.9594 7.91838C26.953 7.9247 26.9467 7.93033 26.9404 7.93736C26.5354 8.35924 26.065 8.69322 25.7879 9.2065C25.5925 9.56791 25.3724 9.73947 24.9765 9.83299C24.7586 9.88431 24.5097 9.9033 24.3269 10.0495C23.8178 10.4503 24.1075 11.4136 24.5898 11.7026C25.1994 12.0675 26.1037 11.896 26.5635 11.3749C26.9228 10.9671 27.1344 10.2591 27.7806 10.2598C28.0651 10.2592 28.3384 10.3706 28.5414 10.5699C28.8086 10.8469 28.7558 11.1056 28.8128 11.4516C28.9133 12.0661 29.4554 11.7328 29.7852 11.4228C30.0256 11.8505 30.2425 12.2911 30.4349 12.7425C30.0721 13.2649 29.7838 13.8345 28.9112 13.2256C28.3888 12.8606 28.0675 12.3312 27.4115 12.1667C26.8384 12.026 26.2513 12.1723 25.6853 12.27C25.0419 12.3818 24.279 12.431 23.7911 12.9183C23.3193 13.388 23.0697 14.0166 22.5676 14.4884C21.5966 15.4024 21.1867 16.4002 21.8153 17.6925C22.42 18.9349 23.6849 19.6092 25.0497 19.5206C26.3905 19.4313 27.7834 18.6537 27.7447 20.602C27.7307 21.2918 27.8748 21.7692 28.0865 22.4098C28.2826 23.0004 28.2693 23.5728 28.3143 24.1824C28.3571 24.8962 28.4687 25.6043 28.6476 26.2967C27.3873 27.9193 25.7728 29.2325 23.9275 30.1358C22.0821 31.0392 20.0547 31.5088 18.0001 31.5089Z" fill="white"/>
</svg>
