<svg width="36" height="36" viewBox="0 0 36 36" fill="none" xmlns="http://www.w3.org/2000/svg">
<path d="M32.9925 10.409C33.1549 10.2464 33.2654 10.0394 33.3102 9.81402C33.355 9.58865 33.3319 9.35507 33.244 9.14277C33.1561 8.93048 33.0073 8.749 32.8163 8.62125C32.6253 8.4935 32.4008 8.42521 32.171 8.42501H27.9085V4.16251C27.9083 3.93273 27.84 3.70818 27.7123 3.51719C27.5845 3.32621 27.403 3.17736 27.1907 3.08946C26.9784 3.00156 26.7449 2.97854 26.5195 3.02331C26.2941 3.06808 26.0871 3.17863 25.9245 3.34101L22.0495 7.21601C21.8314 7.43381 21.7088 7.7293 21.7085 8.03751V12.4333L18.6364 15.5054C18.1771 15.3832 17.6959 15.3681 17.2298 15.4612C16.7638 15.5543 16.3253 15.7532 15.9482 16.0425C15.5712 16.3318 15.2655 16.7039 15.0549 17.1299C14.8443 17.556 14.7344 18.0247 14.7335 18.5C14.7337 18.9412 14.8281 19.3772 15.0103 19.779C15.1925 20.1808 15.4584 20.539 15.7902 20.8298C16.1219 21.1206 16.5119 21.3373 16.9341 21.4653C17.3563 21.5932 17.801 21.6297 18.2384 21.572C18.6758 21.5144 19.0958 21.3641 19.4705 21.1311C19.8451 20.8982 20.1657 20.5879 20.4109 20.2211C20.656 19.8543 20.82 19.4394 20.892 19.0042C20.9639 18.5689 20.9422 18.1233 20.8281 17.6971L23.9002 14.625H28.296C28.6042 14.6247 28.8997 14.5021 29.1175 14.284L32.9925 10.409ZM17.8335 3.00001C19.6434 2.99829 21.4396 3.31357 23.1407 3.93156L20.9521 6.12016C20.855 6.21729 20.7666 6.32062 20.687 6.43016C18.0613 5.81003 15.305 6.06319 12.8361 7.15124C10.3673 8.23929 8.3207 10.1029 7.00677 12.4593C5.69284 14.8156 5.18329 17.5363 5.55541 20.2085C5.92753 22.8806 7.16102 25.3585 9.06877 27.2663C10.9765 29.174 13.4544 30.4075 16.1266 30.7796C18.7988 31.1518 21.5194 30.6422 23.8758 29.3283C26.2322 28.0143 28.0958 25.9677 29.1838 23.4989C30.2719 21.0301 30.525 18.2737 29.9049 15.648C30.0134 15.5674 30.1167 15.4785 30.2149 15.3814L32.4004 13.1928C33.0189 14.8938 33.3347 16.69 33.3335 18.5C33.3335 27.0607 26.3941 34 17.8335 34C9.27285 34 2.3335 27.0607 2.3335 18.5C2.3335 9.93936 9.27285 3.00001 17.8335 3.00001ZM17.8335 9.20001C18.6385 9.20207 19.4135 9.30024 20.1585 9.49451V11.7916L19.5168 12.4333L19.4408 12.5108C18.5221 12.2658 17.5594 12.2351 16.627 12.4211C15.6945 12.6071 14.8172 13.0048 14.0628 13.5835C13.3084 14.1622 12.697 14.9065 12.2758 15.759C11.8546 16.6114 11.6349 17.5492 11.6335 18.5C11.6341 19.3823 11.823 20.2543 12.1876 21.0577C12.5522 21.8611 13.0841 22.5775 13.7477 23.1589C14.4113 23.7403 15.1913 24.1734 16.0357 24.4292C16.8801 24.6851 17.7693 24.7577 18.644 24.6424C19.5188 24.5271 20.3588 24.2263 21.108 23.7604C21.8572 23.2944 22.4983 22.6739 22.9885 21.9403C23.4787 21.2068 23.8067 20.377 23.9505 19.5066C24.0944 18.6361 24.0508 17.7449 23.8227 16.8927L23.9002 16.8167L24.5419 16.175H26.8405C27.3254 18.0529 27.2111 20.0353 26.5135 21.845C25.8159 23.6547 24.57 25.201 22.9501 26.2675C21.3303 27.3341 19.4175 27.8675 17.4795 27.7932C15.5415 27.7189 13.6752 27.0405 12.1417 25.853C10.6083 24.6656 9.4845 23.0284 8.92756 21.1706C8.37062 19.3129 8.40842 17.3274 9.03567 15.4922C9.66293 13.657 10.8482 12.0638 12.4258 10.9356C14.0033 9.80732 15.894 9.2005 17.8335 9.20001Z" fill="white"/>
</svg>
