<svg width="36" height="36" viewBox="0 0 36 36" fill="none" xmlns="http://www.w3.org/2000/svg">
<path d="M33.1314 14.0434C33.1314 14.0434 33.1314 15.467 32.5476 17.3389L26.042 10.8345C25.6892 10.4813 25.2106 10.2826 24.7113 10.2821H18.9326C18.5114 10.2824 18.1026 10.4239 17.7713 10.6839L15.4902 12.4691C15.3336 12.5917 15.1544 12.6823 14.9628 12.7357C14.7712 12.789 14.571 12.804 14.3736 12.7799C14.1762 12.7557 13.9855 12.6929 13.8124 12.595C13.6393 12.4971 13.4872 12.366 13.3648 12.2092C13.1175 11.8922 13.006 11.49 13.0547 11.0909C13.1034 10.6918 13.3084 10.3283 13.6246 10.08L21.4083 4H23.088C25.7517 4 28.3063 5.05814 30.1898 6.94164C32.0733 8.82514 33.1314 11.3797 33.1314 14.0434ZM7.2496 18.2239C7.124 18.098 6.9748 17.9981 6.81054 17.93C6.64628 17.8618 6.47018 17.8267 6.29234 17.8267C6.1145 17.8267 5.9384 17.8618 5.77414 17.93C5.60988 17.9981 5.46068 18.098 5.33508 18.2239L3.39671 20.1698C3.14265 20.4249 3 20.7702 3 21.1302C3 21.4902 3.14265 21.8356 3.39671 22.0906C3.5223 22.2166 3.67151 22.3165 3.83577 22.3846C4.00003 22.4528 4.17613 22.4879 4.35397 22.4879C4.53181 22.4879 4.7079 22.4528 4.87217 22.3846C5.03643 22.3165 5.18563 22.2166 5.31123 22.0906L7.2496 20.1447C7.50359 19.8899 7.6462 19.5448 7.6462 19.185C7.6462 18.8252 7.50359 18.48 7.2496 18.2252M9.25326 20.8478C9.37879 20.7215 9.52805 20.6213 9.69243 20.553C9.85682 20.4846 10.0331 20.4494 10.2111 20.4494C10.3892 20.4494 10.5655 20.4846 10.7299 20.553C10.8942 20.6213 11.0435 20.7215 11.169 20.8478C11.4227 21.1028 11.5651 21.4478 11.5651 21.8075C11.5651 22.1672 11.4227 22.5123 11.169 22.7673L9.22815 24.7095C9.10264 24.8355 8.95346 24.9355 8.78919 25.0038C8.62491 25.0721 8.44878 25.1072 8.27089 25.1072C8.093 25.1072 7.91686 25.0721 7.75259 25.0038C7.58832 24.9355 7.43914 24.8355 7.31363 24.7095C7.05995 24.4545 6.91754 24.1094 6.91754 23.7497C6.91754 23.39 7.05995 23.0449 7.31363 22.7899L9.25326 20.8478ZM14.4218 24.1081C14.2962 23.9822 14.147 23.8823 13.9828 23.8141C13.8185 23.746 13.6424 23.7109 13.4646 23.7109C13.2867 23.7109 13.1106 23.746 12.9464 23.8141C12.7821 23.8823 12.6329 23.9822 12.5073 24.1081L10.5689 26.0515C10.3146 26.3064 10.1717 26.6518 10.1717 27.0119C10.1717 27.372 10.3146 27.7174 10.5689 27.9723C10.6945 28.0984 10.8436 28.1984 11.0079 28.2666C11.1722 28.3349 11.3483 28.37 11.5262 28.37C11.7041 28.37 11.8802 28.3349 12.0445 28.2666C12.2088 28.1984 12.3579 28.0984 12.4835 27.9723L14.4218 26.0277C14.6759 25.7726 14.8185 25.4273 14.8185 25.0673C14.8185 24.7072 14.6759 24.3632 14.4218 24.1081ZM17.6734 27.3659C17.5478 27.2397 17.3986 27.1395 17.2342 27.0711C17.0698 27.0028 16.8935 26.9676 16.7155 26.9676C16.5375 26.9676 16.3612 27.0028 16.1968 27.0711C16.0324 27.1395 15.8831 27.2397 15.7576 27.3659L13.8192 29.3106C13.5656 29.5656 13.4231 29.9107 13.4231 30.2704C13.4231 30.6301 13.5656 30.9751 13.8192 31.2301C13.9447 31.3562 14.0939 31.4562 14.2582 31.5245C14.4225 31.5927 14.5986 31.6279 14.7765 31.6279C14.9544 31.6279 15.1305 31.5927 15.2948 31.5245C15.4591 31.4562 15.6082 31.3562 15.7338 31.2301L17.6721 29.2855C17.9261 29.0306 18.0687 28.6855 18.0687 28.3257C18.0687 27.9659 17.9261 27.6208 17.6721 27.3659M16.8599 4.36658C16.1986 4.17126 15.5178 4.04917 14.8298 4.00251L14.7169 4H14.3001C11.6364 4 9.08181 5.05814 7.19831 6.94164C5.31481 8.82514 4.25667 11.3797 4.25667 14.0434V16.6635C4.87727 16.1585 5.66333 15.9022 6.46229 15.9442C7.26124 15.9861 8.0161 16.3235 8.58035 16.8907C9.07373 17.3866 9.37503 18.003 9.483 18.6458C9.95929 18.5367 10.4541 18.5367 10.9303 18.646C11.4066 18.7552 11.852 18.9708 12.2331 19.2766C12.6142 19.5823 12.9212 19.9704 13.1311 20.4116C13.341 20.8529 13.4484 21.3359 13.4451 21.8245C13.8734 21.8225 14.2979 21.9055 14.6939 22.0686C15.0899 22.2317 15.4497 22.4718 15.7523 22.7749C16.055 23.078 16.2945 23.4381 16.457 23.8344C16.6195 24.2307 16.7018 24.6553 16.6992 25.0836C17.1265 25.0815 17.5499 25.1643 17.945 25.3273C18.34 25.4902 18.6988 25.73 19.0004 26.0327C19.6068 26.642 19.9472 27.4667 19.9472 28.3263C19.9472 29.186 19.6068 30.0107 19.0004 30.62L18.7179 30.9037L20.3173 32.4906C20.5709 32.7401 20.9125 32.88 21.2683 32.88C21.6241 32.88 21.9657 32.7401 22.2193 32.4906C22.739 31.9758 22.7403 31.1422 22.2218 30.6263C22.0436 30.4496 21.943 30.2095 21.9419 29.9586C21.9409 29.7077 22.0395 29.4667 22.2161 29.2886C22.3928 29.1105 22.6329 29.0098 22.8838 29.0088C23.1346 29.0077 23.3756 29.1063 23.5538 29.283C23.8074 29.5325 24.149 29.6724 24.5048 29.6724C24.8606 29.6724 25.2021 29.5325 25.4557 29.283C25.5792 29.161 25.6772 29.0158 25.7442 28.8558C25.8111 28.6957 25.8457 28.5239 25.8458 28.3504C25.8459 28.1769 25.8116 28.0051 25.7449 27.845C25.6781 27.6848 25.5803 27.5395 25.457 27.4174C25.2901 27.2385 25.1989 27.0019 25.2027 26.7573C25.2064 26.5126 25.3047 26.2789 25.477 26.1052C25.6493 25.9314 25.8821 25.8312 26.1267 25.8254C26.3713 25.8196 26.6087 25.9087 26.789 26.0741C27.0429 26.323 27.3844 26.4621 27.7399 26.4617C28.0954 26.4612 28.4365 26.3211 28.6897 26.0716C29.222 25.5443 29.2195 24.6881 28.7111 24.1822L28.7073 24.1797L25.8788 21.3499C25.7125 21.1715 25.622 20.9354 25.6263 20.6914C25.6306 20.4475 25.7294 20.2148 25.9019 20.0423C26.0744 19.8698 26.3071 19.7709 26.5511 19.7666C26.795 19.7623 27.0311 19.8529 27.2096 20.0192L30.5189 23.3247C31.1805 23.9813 32.2714 23.9876 32.8452 23.4189C33.4164 22.8527 33.4114 21.778 32.756 21.1265L32.7535 21.124L24.4225 12.7942H19.1498L17.0381 14.4464C16.6219 14.7721 16.1456 15.0126 15.6363 15.1542C15.1271 15.2958 14.595 15.3356 14.0704 15.2715C13.5458 15.2074 13.0389 15.0405 12.5788 14.7805C12.1187 14.5204 11.7143 14.1723 11.3887 13.7559C10.731 12.9143 10.4342 11.846 10.5637 10.7858C10.6932 9.72552 11.2383 8.76003 12.0792 8.10147L16.8599 4.36658Z" fill="white"/>
</svg>
