<svg width="36" height="36" viewBox="0 0 36 36" fill="none" xmlns="http://www.w3.org/2000/svg">
<path fill-rule="evenodd" clip-rule="evenodd" d="M31.942 11.3911C31.6376 11.5003 31.3085 11.5209 30.9929 11.4503C30.6773 11.3798 30.3882 11.2211 30.1593 10.9927L28.9025 9.73362L19.3468 19.2893C19.1882 19.448 18.9999 19.5739 18.7927 19.6598C18.5854 19.7456 18.3633 19.7899 18.139 19.7899C17.9146 19.7899 17.6925 19.7456 17.4852 19.6598C17.278 19.5739 17.0897 19.448 16.9311 19.2893L13.286 15.6442L4.60227 24.3279C4.44468 24.4909 4.25619 24.6209 4.04782 24.7103C3.83944 24.7997 3.61535 24.8467 3.38862 24.8485C3.16188 24.8504 2.93705 24.8071 2.72723 24.7211C2.51742 24.6352 2.32682 24.5083 2.16657 24.3479C2.00631 24.1875 1.87961 23.9968 1.79385 23.7869C1.70809 23.577 1.66499 23.3521 1.66706 23.1254C1.66914 22.8986 1.71635 22.6746 1.80594 22.4663C1.89553 22.258 2.02571 22.0696 2.18887 21.9122L12.0747 12.0195C12.2333 11.8608 12.4216 11.735 12.6288 11.6491C12.8361 11.5632 13.0582 11.519 13.2825 11.519C13.5069 11.519 13.729 11.5632 13.9363 11.6491C14.1435 11.735 14.3318 11.8608 14.4904 12.0195L18.1378 15.6669L26.4868 7.31794L25.23 6.06115C25.0012 5.83257 24.8419 5.54369 24.7709 5.22813C24.6998 4.91257 24.7198 4.58332 24.8286 4.2787C24.9374 3.97408 25.1304 3.70662 25.3853 3.50745C25.6402 3.30828 25.9464 3.1856 26.2682 3.15368C28.347 2.94877 29.5423 2.94877 31.5436 3.15368C31.9341 3.19407 32.2989 3.36782 32.5763 3.64567C32.8537 3.92353 33.0269 4.28851 33.0667 4.67914C33.2739 6.67816 33.2717 7.87575 33.0667 9.95219C33.0347 10.2739 32.912 10.5799 32.7129 10.8347C32.5138 11.0894 32.2465 11.2824 31.942 11.3911ZM28.2468 14.8245C28.5048 14.5744 28.8351 14.412 29.1907 14.3605C29.5464 14.309 29.9092 14.371 30.2276 14.5377L32.4406 15.6988C32.727 15.8495 32.9646 16.0785 33.1258 16.359C33.2871 16.6396 33.3653 16.9602 33.3513 17.2835L32.723 32.283C32.7047 32.7235 32.5168 33.1399 32.1985 33.4451C31.8802 33.7502 31.4563 33.9204 31.0154 33.92H26.5255C26.3746 33.92 26.2298 33.86 26.123 33.7533C26.0163 33.6465 25.9563 33.5018 25.9563 33.3508V17.2857C25.9562 17.2093 25.9714 17.1336 26.0011 17.0632C26.0309 16.9928 26.0745 16.9291 26.1294 16.8759L28.2468 14.8245ZM23.1103 33.3508C23.1103 33.5018 23.0504 33.6465 22.9436 33.7533C22.8369 33.86 22.6921 33.92 22.5411 33.92H14.0032C13.8522 33.92 13.7074 33.86 13.6007 33.7533C13.4939 33.6465 13.434 33.5018 13.434 33.3508V20.1135C13.434 20.068 13.4681 20.0316 13.5136 20.0361C13.8848 20.0543 14.249 20.1955 14.5496 20.4573L18.2949 23.745C18.4023 23.8395 18.5414 23.8901 18.6844 23.8868C18.8274 23.8834 18.9639 23.8263 19.0667 23.7268L22.145 20.7396C22.2253 20.6617 22.3269 20.6093 22.4369 20.5888C22.5469 20.5683 22.6605 20.5807 22.7636 20.6244C22.8666 20.6681 22.9544 20.7413 23.0161 20.8347C23.0778 20.928 23.1105 21.0375 23.1103 21.1495V33.3508ZM9.61122 23.1895L2.53039 30.4206C2.21701 30.7395 2.04125 31.1687 2.04088 31.6159V32.2124C2.04088 33.155 2.80588 33.92 3.74848 33.92H10.0188C10.1697 33.92 10.3145 33.86 10.4213 33.7533C10.528 33.6465 10.588 33.5018 10.588 33.3508V23.5879C10.5882 23.4746 10.5546 23.3639 10.4915 23.2698C10.4284 23.1757 10.3386 23.1026 10.2338 23.0598C10.1289 23.017 10.0136 23.0065 9.90269 23.0296C9.79179 23.0527 9.6903 23.1084 9.61122 23.1895Z" fill="white"/>
</svg>
