<svg width="34" height="34" viewBox="0 0 34 34" fill="none" xmlns="http://www.w3.org/2000/svg">
<path d="M25.5001 2.8335V7.0835H31.1668C31.1281 10.503 30.5908 12.9145 29.555 14.318L29.396 14.521C28.5633 15.5203 27.1418 16.2306 25.1317 16.6518C24.2027 19.694 21.6134 22.0118 18.4198 22.5488C18.4172 22.587 18.4168 22.6269 18.4168 22.6668C18.4168 25.7964 20.9538 28.3335 24.0835 28.3335V31.1668H9.91678V28.3335C13.0464 28.3335 15.5835 25.7964 15.5835 22.6668L15.5804 22.5488C12.3868 22.0118 9.79759 19.694 8.86903 16.6516C6.85851 16.2305 5.43693 15.5203 4.60429 14.521C3.4644 13.1531 2.87414 10.6739 2.8335 7.0835H8.50014V2.8335H25.5001ZM17.0001 5.66679L15.3625 9.55979L11.3335 9.99614L14.3538 12.8295L13.4981 17.0001L17.0001 14.8581L20.5021 17.0001L19.6465 12.8351L22.6668 10.0018L18.6378 9.5655L17.0001 5.66679ZM8.50014 9.91678H5.86229L5.89303 10.1208C6.07472 11.2837 6.35349 12.1088 6.68825 12.5857L6.78095 12.7071C7.04232 13.0208 7.53366 13.3163 8.26161 13.5644L8.50014 13.6398V9.91678ZM28.138 9.91678H25.5001V13.6398L25.7387 13.5644C26.4666 13.3163 26.9579 13.0208 27.2193 12.7071L27.312 12.5857C27.6468 12.1088 27.9256 11.2837 28.1072 10.1208L28.138 9.91678Z" fill="white"/>
</svg>
