<svg width="44" height="44" viewBox="0 0 44 44" fill="none" xmlns="http://www.w3.org/2000/svg">
<path fill-rule="evenodd" clip-rule="evenodd" d="M4.32009 22.5237C3.96509 22.5237 3.67725 22.2359 3.67725 21.8809C3.67725 21.5259 3.96509 21.238 4.32009 21.238H7.49451C7.51792 21.238 7.53798 21.2285 7.55285 21.2105C7.56773 21.1925 7.57327 21.171 7.56887 21.148C7.38909 20.2131 7.48958 19.4938 7.84211 18.4682C8.54998 16.4087 10.2874 14.176 12.7345 14.9249C12.7426 14.9274 12.749 14.9306 12.7559 14.9355L19.8156 19.9053C19.8162 19.9057 19.8168 19.9061 19.8174 19.9065L21.8148 21.2254C21.8277 21.2339 21.841 21.238 21.8565 21.238H23.2219C23.247 21.238 23.2686 21.227 23.2833 21.2065C23.298 21.1862 23.3017 21.1622 23.2938 21.1384C22.8001 19.6507 21.1866 16.5803 22.4971 15.3745C22.7594 15.1332 23.2754 14.9485 23.8684 14.8529C24.4868 14.7533 26.2536 15.0338 26.8029 15.1815C27.6949 15.4214 29.9767 17.5862 31.6822 18.8183C31.9553 19.0156 32.1804 19.1782 32.4348 19.3583C32.5006 19.4047 32.5721 19.437 32.6458 19.4559L32.6457 19.4562L36.9915 20.5756C37.1873 20.626 37.4287 20.7261 37.5144 20.8632C37.5589 20.9345 37.5624 21.0403 37.5421 21.1483C37.5379 21.1712 37.5434 21.1926 37.5583 21.2106C37.5732 21.2285 37.5932 21.238 37.6166 21.238H39.6801C40.0351 21.238 40.3229 21.5258 40.3229 21.8808C40.3229 22.2359 40.0351 22.5236 39.6801 22.5236H4.32009V22.5237ZM22.9814 36.0896L18.3366 29.9429C18.3204 29.9214 18.2962 29.9107 18.2693 29.9132C18.2426 29.9155 18.2207 29.9304 18.2085 29.9544L17.0873 32.1784C17.073 32.2069 17.0773 32.2395 17.0987 32.2632L21.2206 36.8311C21.615 37.2691 22.3391 38.1129 22.6895 37.8421C23.2345 37.4208 23.3921 36.6331 22.9814 36.0896ZM27.2257 30.2741C26.9518 31.2222 25.229 37.5049 25.2292 37.5058C25.2954 37.739 25.5042 37.9176 25.7546 38.0325C25.8683 38.0847 26.0711 37.9686 26.2969 37.7817C26.8127 37.3545 27.2957 36.6224 27.5577 36.1342C27.5589 36.1321 27.5597 36.1302 27.5607 36.128L29.3758 31.8473C29.3894 31.8153 29.3801 31.7794 29.3527 31.758C28.6903 31.2418 28.0012 30.749 27.3452 30.2356C27.3248 30.2197 27.3 30.2153 27.2753 30.2232C27.2505 30.2311 27.2329 30.2492 27.2257 30.2741ZM24.788 11.9977C24.788 13.9684 27.1815 14.96 28.5751 13.5664C29.9687 12.1727 28.9771 9.7793 27.0064 9.7793C25.781 9.7793 24.788 10.7724 24.788 11.9977ZM8.60375 15.1256C9.24369 13.6716 8.18082 12.0145 6.57218 12.0145C4.60151 12.0145 3.60984 14.408 5.00349 15.8016C5.40486 16.2029 5.95953 16.4513 6.57218 16.4513C7.1741 16.4513 7.72005 16.2116 8.11966 15.8225C8.12424 15.818 8.12767 15.8137 8.1311 15.8083C8.27613 15.5755 8.43083 15.3516 8.59407 15.1415C8.59812 15.1364 8.60102 15.1315 8.60375 15.1256ZM13.918 21.238H19.2343C19.2701 21.238 19.3003 21.2138 19.3082 21.1789C19.3161 21.144 19.2991 21.1092 19.2667 21.0939L16.1989 19.6456C16.1984 19.6453 16.198 19.6452 16.1975 19.645C15.7493 19.4437 12.8897 17.9067 12.6671 18.279C12.5433 18.4858 12.5498 18.7344 12.6625 18.9293C12.663 18.9302 12.6635 18.931 12.6641 18.932L13.8509 21.1974C13.8643 21.2231 13.8891 21.238 13.918 21.238ZM8.66544 23.8276C8.65101 23.8036 8.65065 23.7758 8.66456 23.7514C8.67837 23.727 8.7024 23.713 8.73038 23.713H15.123C15.1518 23.713 15.1766 23.7281 15.19 23.7536L17.3246 27.8281C17.5195 28.2001 17.4536 28.6184 17.258 28.9908L13.0002 37.0939C12.6771 37.7089 11.9236 38.0182 11.3056 37.7287C11.0918 37.6285 10.755 36.8881 11.0959 36.0589C11.1919 35.8253 11.2802 35.6109 11.3342 35.4632C11.3345 35.4625 11.3347 35.4619 11.3349 35.4613L13.3918 29.3498C13.392 29.3492 13.3922 29.3486 13.3924 29.348C13.4966 29.0624 13.3852 28.7503 13.1409 28.5907C11.659 27.6182 10.4366 26.4631 9.09602 24.4998C8.95021 24.2859 8.80518 24.0611 8.66544 23.8276ZM28.0241 21.238H32.5505C32.5891 21.238 32.6212 21.2094 32.6257 21.1711C32.6302 21.1327 32.6054 21.0974 32.5677 21.0886L31.9912 20.9538C31.9863 20.9527 31.9824 20.9513 31.9778 20.9493L27.9016 19.1472C27.9 19.1465 27.8987 19.146 27.8971 19.1454C26.9414 18.7936 27.7831 20.0727 27.7211 20.1799C27.7109 20.1976 27.7082 20.2164 27.7132 20.2362L27.9507 21.1808C27.9593 21.2149 27.989 21.238 28.0241 21.238ZM23.7637 23.7936C23.7623 23.772 23.7691 23.7528 23.784 23.737C23.7989 23.7211 23.8175 23.713 23.8393 23.713H28.7479C28.7766 23.713 28.8012 23.7277 28.8147 23.7531L30.7302 27.3346C30.7305 27.335 30.7306 27.3354 30.7309 27.3358C30.7427 27.3589 30.7557 27.3809 30.7699 27.4019L30.7682 27.4031L33.1588 30.4105C33.1618 30.4143 33.1641 30.4178 33.1664 30.4222C33.5284 31.1107 37.1298 37.5957 36.9259 37.7591C36.3951 38.1842 35.5821 38.1142 35.1812 37.5645L31.2785 32.2137C31.2768 32.2113 31.2753 32.2094 31.2733 32.2072C29.9856 30.7961 29.7072 30.3962 28.3361 29.3201C27.5515 28.7043 26.4128 27.9837 25.47 27.2733C23.8699 26.0674 23.8502 25.1273 23.7637 23.7936ZM37.4673 30.7234L39.7127 27.2689C39.9054 26.972 39.8211 26.5752 39.5244 26.3824C39.2277 26.1897 38.8307 26.274 38.638 26.5708L36.3926 30.0253C36.1998 30.3221 36.2842 30.719 36.5809 30.9117C36.8776 31.1045 37.2745 31.0201 37.4673 30.7234ZM34.8619 27.216L37.8705 25.1311C38.1617 24.93 38.2348 24.5308 38.0338 24.2396C37.8327 23.9484 37.4335 23.8753 37.1423 24.0764L34.1337 26.1613C33.8425 26.3624 33.7694 26.7615 33.9705 27.0527C34.1715 27.3439 34.5707 27.417 34.8619 27.216ZM34.5811 15.028L37.5897 17.1129C37.8809 17.3139 38.2801 17.2408 38.4812 16.9496C38.6822 16.6584 38.6091 16.2593 38.3179 16.0582L35.3093 13.9733C35.0181 13.7722 34.6189 13.8453 34.4178 14.1365C34.2168 14.4278 34.2899 14.8269 34.5811 15.028ZM37.1077 12.3156L39.1208 15.3727C39.315 15.668 39.7118 15.7501 40.0073 15.556C40.3027 15.3618 40.3847 14.965 40.1906 14.6695L38.1774 11.6125C37.9833 11.3171 37.5864 11.2351 37.291 11.4292C36.9955 11.6233 36.9134 12.0202 37.1077 12.3156Z" fill="white"/>
</svg>
