<svg width="44" height="44" viewBox="0 0 44 44" fill="none" xmlns="http://www.w3.org/2000/svg">
<g clip-path="url(#clip0_1_91)">
<path fill-rule="evenodd" clip-rule="evenodd" d="M35.5507 39.0319C35.3215 39.0319 35.092 38.9559 34.9019 38.8019L28.5359 33.6454L27.1953 34.0432L33.6983 39.5862C33.9192 39.7742 34.0503 40.047 34.0604 40.3375C34.0697 40.6279 33.9565 40.9082 33.7481 41.1106L31.0747 43.7084C30.8749 43.9025 30.6154 43.9999 30.3557 43.9999C30.1085 43.9999 29.8612 43.9118 29.6642 43.7343L20.6365 35.5813H18.1457C17.8259 35.5813 17.5244 35.4331 17.3289 35.1798L8.64534 23.9177C8.46944 23.6896 8.39707 23.3988 8.44508 23.1153C8.49319 22.8318 8.65783 22.581 8.8992 22.4239L12.1602 20.3001C12.259 20.2357 12.3687 20.1888 12.4833 20.1616L19.2534 18.5427L24.7053 14.4625L24.7912 8.33192C23.4389 7.91201 22.4212 6.72525 22.2482 5.2826L3.00561 2.04794C2.4438 1.95375 2.0649 1.42158 2.1595 0.85977C2.25369 0.298265 2.78536 -0.0798289 3.34757 0.0140616L22.5906 3.2489C23.184 2.03484 24.4314 1.19644 25.8712 1.19644C27.7354 1.19644 29.2776 2.60203 29.4941 4.40885L40.9941 6.34194C41.5556 6.43654 41.9345 6.96831 41.8399 7.53002C41.7551 8.03377 41.3185 8.39055 40.8244 8.39055C40.7675 8.39055 40.7102 8.38588 40.6522 8.37613L29.1516 6.44294C28.6984 7.36985 27.8638 8.07762 26.8537 8.3605L26.7608 14.998L26.7232 19.0357L26.8453 27.4729L29.6925 26.6572C30.0248 26.5609 30.3846 26.6396 30.6483 26.866L39.2184 34.2227C39.4361 34.4096 39.5664 34.6789 39.5772 34.9661C39.5878 35.2534 39.479 35.5316 39.2757 35.7345L36.28 38.7298C36.0802 38.9302 35.8156 39.0319 35.5507 39.0319ZM24.6924 21.2517L22.1905 23.3892C22.0626 23.4987 21.9099 23.575 21.7453 23.6116L20.1314 23.9726L21.1893 25.2995C21.2036 25.3173 21.2172 25.3355 21.2301 25.3542L23.3875 28.4635L24.7909 28.0614L24.6924 21.2517ZM9.19671 19.0758C7.92084 19.0758 6.72201 18.5792 5.82008 17.6771C3.95834 15.8151 3.95834 12.7858 5.82008 10.9241C6.72202 10.0221 7.92126 9.52546 9.19671 9.52546C10.472 9.52546 11.6712 10.0221 12.5733 10.9241C14.435 12.7858 14.435 15.8154 12.5733 17.6771C11.6709 18.5792 10.4723 19.0758 9.19671 19.0758Z" fill="white"/>
</g>
<defs>
<clipPath id="clip0_1_91">
<rect width="44" height="44" fill="white"/>
</clipPath>
</defs>
</svg>
