<svg width="44" height="44" viewBox="0 0 54 54" fill="none" xmlns="http://www.w3.org/2000/svg">
      <path d="M27 15.1875C33.9899 15.1875 39.6562 13.2987 39.6562 10.9688C39.6562 8.6388 33.9899 6.75 27 6.75C20.0101 6.75 14.3438 8.6388 14.3438 10.9688C14.3438 13.2987 20.0101 15.1875 27 15.1875Z" stroke="#f26727" stroke-width="1.6875" stroke-miterlimit="10" />
      <path d="M39.6562 10.9688V15.1875C39.6562 17.5162 33.9862 19.4062 27 19.4062C20.0138 19.4062 14.3438 17.5162 14.3438 15.1875V10.9688" stroke="#f26727" stroke-width="1.6875" stroke-miterlimit="10" />
      <path d="M14.3438 14.3438H13.5C13.0524 14.3438 12.6232 14.5215 12.3068 14.838C11.9903 15.1545 11.8125 15.5837 11.8125 16.0312V19.4062C11.8125 22.1991 18.6131 24.4688 27 24.4688C35.3869 24.4688 42.1875 22.1991 42.1875 19.4062V16.0312C42.1875 15.5837 42.0097 15.1545 41.6932 14.838C41.3768 14.5215 40.9476 14.3438 40.5 14.3438H39.6562" stroke="#f26727" stroke-width="1.6875" stroke-miterlimit="10" />
      <path d="M15.1875 31.0249C18.977 32.3685 22.9806 33.0062 27 32.9065C31.0194 33.0062 35.023 32.3685 38.8125 31.0249" stroke="#f26727" stroke-width="1.6875" stroke-miterlimit="10" />
      <path d="M16.875 42.5845C20.1731 43.4858 23.5813 43.9203 27 43.8754C30.4187 43.9203 33.8269 43.4858 37.125 42.5845" stroke="#f26727" stroke-width="1.6875" stroke-miterlimit="10" />
      <path d="M13.5 21.9375L17.7188 50.625C17.7188 52.0256 21.87 53.1562 27 53.1562C32.13 53.1562 36.2812 52.0256 36.2812 50.625L40.5 21.9375" stroke="#f26727" stroke-width="1.6875" stroke-miterlimit="10" />
      <path d="M34.5938 11.8125C35.5257 11.8125 36.2812 11.4347 36.2812 10.9688C36.2812 10.5028 35.5257 10.125 34.5938 10.125C33.6618 10.125 32.9062 10.5028 32.9062 10.9688C32.9062 11.4347 33.6618 11.8125 34.5938 11.8125Z" fill="#f26727" />
      <path d="M34.5938 10.9688L38.3822 1.88156C38.5101 1.57497 38.7256 1.31295 39.0018 1.12833C39.278 0.943716 39.6025 0.844719 39.9347 0.84375H45.5625" stroke="#f26727" stroke-width="1.6875" stroke-miterlimit="10" stroke-linecap="round" />
    </svg>