<svg width="267" height="260" viewBox="0 0 267 260" fill="none" xmlns="http://www.w3.org/2000/svg">
<path d="M1.16754 258.702C1.81219 259.215 2.63572 259.45 3.457 259.355C4.27827 259.261 5.03004 258.844 5.54696 258.197C7.81116 255.352 10.2767 252.674 12.9244 250.181C13.5287 249.615 13.8845 248.833 13.9135 248.008C13.9425 247.182 13.6423 246.381 13.079 245.78C12.5156 245.179 11.7353 244.828 10.9097 244.803C10.084 244.779 9.28067 245.083 8.67635 245.649C5.80811 248.347 3.13717 251.247 0.684333 254.327C0.233817 254.891 -0.00798982 255.593 4.52858e-05 256.313C0.00809018 257.033 0.265489 257.726 0.728436 258.276C0.860828 258.432 1.00755 258.574 1.16754 258.702ZM28.5215 239.509C31.7593 238.014 35.1442 236.864 38.6199 236.078C39.4268 235.896 40.1301 235.402 40.5752 234.704C41.0203 234.006 41.1707 233.161 40.9933 232.356C40.8159 231.55 40.3252 230.85 39.6292 230.409C38.9332 229.968 38.0889 229.822 37.282 230.003C33.3774 230.886 29.5748 232.178 25.9371 233.856C25.5649 234.028 25.2298 234.271 24.9508 234.572C24.6719 234.872 24.4547 235.225 24.3115 235.608C24.1684 235.992 24.1021 236.4 24.1165 236.809C24.1309 237.217 24.2257 237.618 24.3955 237.989C24.5653 238.361 24.8067 238.694 25.106 238.971C25.4053 239.249 25.7565 239.464 26.1398 239.605C26.523 239.746 26.9307 239.81 27.3395 239.793C27.7484 239.777 28.1504 239.68 28.5226 239.508M57.53 235.226C61.2462 235.505 64.8744 235.787 68.4146 236.072L68.8069 236.103C69.2177 236.141 69.6322 236.097 70.0267 235.974C70.4211 235.85 70.7874 235.65 71.1044 235.384C71.4215 235.118 71.6828 234.792 71.8734 234.426C72.0639 234.059 72.1799 233.658 72.2144 233.247C72.249 232.836 72.2016 232.422 72.0748 232.03C71.9481 231.638 71.7446 231.276 71.4762 230.964C71.2077 230.652 70.8797 230.397 70.5111 230.214C70.1425 230.03 69.7407 229.922 69.3291 229.895L68.9367 229.864C65.3872 229.585 61.7508 229.303 58.0276 229.018C57.2192 228.982 56.427 229.262 55.8188 229.799C55.2105 230.336 54.8338 231.087 54.7685 231.894C54.7032 232.701 54.9543 233.499 55.4688 234.121C55.9833 234.743 56.7207 235.139 57.5249 235.225M88.7366 237.561C92.9656 237.82 96.6967 237.997 100.142 238.105C100.554 238.125 100.968 238.062 101.357 237.92C101.746 237.778 102.103 237.561 102.409 237.28C102.714 237 102.96 236.661 103.133 236.285C103.307 235.909 103.404 235.503 103.419 235.09C103.433 234.677 103.366 234.265 103.22 233.879C103.074 233.494 102.852 233.141 102.568 232.842C102.284 232.544 101.943 232.305 101.565 232.14C101.186 231.975 100.779 231.887 100.365 231.881C96.9841 231.777 93.313 231.602 89.1481 231.348C88.3237 231.297 87.5113 231.576 86.8895 232.123C86.2677 232.67 85.8875 233.441 85.8326 234.265C85.8054 234.673 85.8589 235.082 85.9899 235.469C86.121 235.855 86.3271 236.212 86.5965 236.518C87.1406 237.137 87.9094 237.513 88.7337 237.563M120.425 237.732C124.308 237.427 128.172 236.899 131.997 236.151C132.794 235.976 133.493 235.496 133.943 234.814C134.393 234.132 134.558 233.302 134.403 232.502C134.248 231.703 133.786 230.998 133.115 230.538C132.444 230.078 131.618 229.901 130.814 230.044C127.22 230.744 123.59 231.239 119.942 231.524C119.534 231.558 119.136 231.671 118.772 231.859C118.407 232.046 118.082 232.302 117.816 232.614C117.55 232.926 117.348 233.287 117.221 233.677C117.094 234.066 117.045 234.476 117.077 234.884C117.108 235.291 117.22 235.688 117.405 236.051C117.59 236.415 117.845 236.738 118.156 237.002C118.467 237.267 118.827 237.467 119.216 237.592C119.605 237.716 120.015 237.763 120.423 237.729M151.633 229.289C154.174 227.923 156.617 226.38 158.943 224.673C159.832 224.018 160.707 223.349 161.539 222.679C162.184 222.16 162.598 221.407 162.689 220.586C162.78 219.764 162.541 218.942 162.025 218.3C161.509 217.658 160.758 217.249 159.937 217.162C159.116 217.075 158.292 217.318 157.647 217.838C156.886 218.45 156.084 219.061 155.271 219.662C153.179 221.197 150.983 222.584 148.699 223.812C148.336 224.005 148.014 224.268 147.752 224.585C147.49 224.902 147.292 225.268 147.172 225.66C147.051 226.053 147.009 226.465 147.048 226.874C147.087 227.282 147.207 227.678 147.399 228.039C147.592 228.4 147.855 228.719 148.172 228.978C148.49 229.236 148.855 229.43 149.248 229.546C149.641 229.663 150.053 229.7 150.462 229.657C150.87 229.614 151.267 229.49 151.628 229.294M171.144 208.088C171.853 208.508 172.702 208.629 173.503 208.424C174.304 208.219 174.993 207.704 175.418 206.993C177.46 203.554 179.135 199.91 180.414 196.123C180.681 195.34 180.626 194.485 180.261 193.746C179.897 193.007 179.253 192.445 178.471 192.182C177.689 191.92 176.833 191.98 176.092 192.348C175.35 192.716 174.784 193.363 174.517 194.146C173.384 197.519 171.893 200.762 170.072 203.822C169.861 204.174 169.722 204.564 169.662 204.968C169.602 205.373 169.622 205.786 169.721 206.182C169.821 206.578 169.998 206.95 170.242 207.277C170.486 207.604 170.792 207.88 171.143 208.088M180.936 178.715C181.344 178.744 181.754 178.692 182.142 178.562C182.531 178.433 182.89 178.228 183.201 177.96C183.511 177.692 183.765 177.365 183.95 176.999C184.134 176.633 184.245 176.235 184.275 175.827C184.545 172.267 184.67 168.49 184.664 164.277C184.663 163.868 184.582 163.463 184.425 163.087C184.268 162.71 184.038 162.369 183.748 162.082C183.458 161.795 183.114 161.568 182.736 161.414C182.358 161.26 181.953 161.182 181.544 161.185C181.135 161.188 180.73 161.271 180.352 161.431C179.974 161.59 179.631 161.821 179.343 162.113C179.054 162.404 178.825 162.749 178.669 163.127C178.513 163.506 178.433 163.912 178.434 164.32C178.441 168.371 178.321 171.991 178.063 175.392C178.032 175.8 178.082 176.21 178.21 176.598C178.337 176.985 178.54 177.344 178.807 177.652C179.074 177.961 179.399 178.214 179.764 178.396C180.129 178.579 180.527 178.687 180.935 178.716M180.976 147.496C181.385 147.468 181.784 147.359 182.152 147.177C182.519 146.994 182.847 146.741 183.117 146.433C183.387 146.124 183.594 145.765 183.726 145.377C183.858 144.989 183.912 144.579 183.886 144.171C183.679 141.004 183.427 137.511 183.07 132.849C183.039 132.441 182.928 132.044 182.743 131.68C182.558 131.317 182.303 130.993 181.992 130.729C181.682 130.464 181.322 130.263 180.933 130.138C180.544 130.013 180.134 129.966 179.726 129.999C179.318 130.033 178.921 130.146 178.556 130.333C178.191 130.519 177.866 130.776 177.6 131.088C177.333 131.399 177.131 131.76 177.003 132.15C176.876 132.539 176.827 132.949 176.858 133.356C177.214 137.996 177.463 141.466 177.669 144.61C177.695 145.018 177.801 145.416 177.982 145.783C178.162 146.149 178.414 146.476 178.721 146.744C179.029 147.012 179.386 147.217 179.774 147.347C180.161 147.477 180.571 147.529 180.98 147.5M178.674 116.348C179.498 116.285 180.265 115.897 180.806 115.27C181.347 114.643 181.618 113.828 181.559 113.005C181.27 108.953 181.027 105.27 180.818 101.748C180.768 100.924 180.394 100.155 179.776 99.6101C179.158 99.0653 178.347 98.7893 177.522 98.8429C176.698 98.8965 175.926 99.2753 175.378 99.8959C174.829 100.516 174.549 101.328 174.598 102.152C174.81 105.698 175.053 109.404 175.345 113.482C175.374 113.89 175.484 114.288 175.667 114.652C175.849 115.017 176.103 115.342 176.412 115.608C176.721 115.874 177.08 116.077 177.468 116.204C177.856 116.331 178.266 116.38 178.674 116.348ZM177.693 85.1537C178.098 85.2129 178.51 85.1919 178.907 85.0918C179.304 84.9916 179.678 84.8143 180.008 84.5701C180.337 84.3259 180.615 84.0194 180.827 83.6682C181.038 83.3171 181.178 82.9281 181.24 82.5235C181.781 78.9518 182.609 75.4281 183.716 71.9864C183.842 71.5966 183.889 71.1863 183.856 70.7789C183.823 70.3715 183.71 69.975 183.524 69.6121C183.337 69.2492 183.081 68.9269 182.769 68.6637C182.458 68.4005 182.097 68.2014 181.707 68.078C181.318 67.9546 180.908 67.9091 180.5 67.9443C180.092 67.9794 179.695 68.0944 179.331 68.2828C178.967 68.4712 178.643 68.7292 178.378 69.0421C178.113 69.355 177.912 69.7167 177.786 70.1065C176.576 73.8676 175.671 77.7185 175.081 81.6218C175.019 82.0264 175.038 82.4387 175.136 82.8351C175.234 83.2316 175.409 83.6044 175.652 83.9323C175.894 84.2602 176.2 84.5368 176.55 84.7462C176.9 84.9556 177.289 85.0937 177.693 85.1527M187.715 55.7388C188.055 55.9639 188.437 56.1196 188.838 56.197C189.239 56.2744 189.652 56.272 190.054 56.1898C190.455 56.1077 190.836 55.9474 191.176 55.7182C191.516 55.489 191.808 55.1954 192.035 54.854C194.056 51.8282 196.284 48.9455 198.703 46.227C198.975 45.9204 199.185 45.5636 199.32 45.1768C199.454 44.79 199.512 44.381 199.488 43.9729C199.465 43.5648 199.361 43.1658 199.183 42.7985C199.006 42.4313 198.757 42.103 198.452 41.8326C198.146 41.5621 197.79 41.3546 197.404 41.222C197.018 41.0895 196.609 41.0343 196.2 41.0599C195.792 41.0854 195.392 41.1911 195.024 41.3708C194.655 41.5505 194.326 41.8008 194.053 42.1074C191.44 45.0433 189.033 48.1568 186.852 51.4253C186.478 51.9874 186.295 52.6546 186.332 53.3268C186.368 53.9991 186.622 54.6402 187.055 55.1541C187.245 55.3797 187.467 55.5766 187.714 55.7387M212.997 33.2539C215.882 31.1156 218.975 29.0566 222.186 27.1309C222.538 26.9202 222.845 26.6426 223.09 26.3139C223.336 25.9852 223.514 25.6118 223.615 25.215C223.716 24.8183 223.738 24.4059 223.68 24.0015C223.621 23.597 223.484 23.2085 223.275 22.858C223.066 22.5075 222.79 22.2019 222.462 21.9587C222.135 21.7155 221.762 21.5394 221.366 21.4405C220.969 21.3416 220.557 21.3218 220.152 21.3822C219.747 21.4427 219.357 21.5822 219.006 21.7928C215.617 23.8219 212.353 25.9968 209.3 28.2551C208.971 28.4992 208.692 28.8055 208.48 29.1566C208.269 29.5077 208.128 29.8966 208.067 30.3011C208.005 30.7056 208.024 31.1179 208.122 31.5143C208.22 31.9107 208.395 32.2836 208.638 32.6115C208.678 32.6662 208.719 32.7193 208.762 32.7705C209.272 33.3727 209.993 33.7573 210.778 33.8465C211.564 33.9356 212.355 33.7225 212.993 33.2505M239.626 18.4101C242.994 17.0179 246.499 15.7208 250.046 14.5538C250.44 14.4301 250.807 14.2294 251.124 13.9633C251.441 13.6972 251.702 13.3711 251.892 13.0039C252.082 12.6368 252.198 12.2358 252.232 11.8244C252.266 11.413 252.219 10.9994 252.091 10.6075C251.964 10.2156 251.76 9.85337 251.491 9.54175C251.222 9.23015 250.894 8.9754 250.525 8.79234C250.155 8.60926 249.753 8.50148 249.342 8.47531C248.93 8.44913 248.516 8.50507 248.125 8.63986C244.434 9.85522 240.782 11.2069 237.271 12.6576C236.892 12.8142 236.548 13.0436 236.257 13.3328C235.966 13.622 235.735 13.9653 235.577 14.3431C235.418 14.7209 235.336 15.1257 235.334 15.5346C235.332 15.9434 235.41 16.3482 235.565 16.7259C235.72 17.1036 235.947 17.4467 236.235 17.7358C236.523 18.0248 236.865 18.254 237.242 18.4103C237.619 18.5667 238.024 18.6471 238.433 18.6469C238.842 18.6468 239.247 18.5666 239.626 18.4101ZM268.983 9.56815C272.601 8.84138 276.297 8.22354 279.966 7.73247C280.785 7.62271 281.529 7.19237 282.034 6.53611C282.539 5.87982 282.763 5.05137 282.658 4.23301C282.552 3.41463 282.126 2.67334 281.472 2.17227C280.818 1.67118 279.99 1.45136 279.171 1.56112C275.37 2.07285 271.536 2.70867 267.787 3.46516C267.386 3.54585 267.004 3.70469 266.663 3.93265C266.322 4.1606 266.029 4.45315 265.801 4.79367C265.573 5.13415 265.413 5.5159 265.332 5.91711C265.251 6.31834 265.25 6.73114 265.329 7.13198C265.407 7.53282 265.564 7.91384 265.79 8.25328C266.017 8.59273 266.308 8.88394 266.647 9.11033C266.987 9.3367 267.368 9.49381 267.769 9.57264C268.17 9.65149 268.583 9.65055 268.984 9.56986M299.492 6.25366C301.173 6.22396 302.87 6.22075 304.536 6.24221C306.548 6.26836 308.587 6.33603 310.592 6.44597C311 6.4681 311.409 6.40964 311.796 6.27385C312.182 6.13805 312.539 5.92764 312.845 5.65458C313.151 5.38153 313.4 5.05122 313.579 4.68249C313.758 4.31375 313.862 3.9138 313.887 3.50552C313.911 3.09725 313.855 2.68859 313.721 2.30292C313.587 1.91724 313.378 1.56209 313.107 1.25775C312.835 0.953389 312.506 0.705797 312.138 0.529111C311.77 0.352414 311.371 0.250062 310.962 0.227932C308.871 0.115076 306.748 0.0421215 304.652 0.0143558C302.922 -0.00820203 301.16 -0.00452315 299.416 0.0268186C298.59 0.0413197 297.801 0.383236 297.224 0.977302C296.647 1.5714 296.329 2.369 296.339 3.19465C296.349 4.02029 296.687 4.80636 297.278 5.37994C297.869 5.95352 298.666 6.26816 299.492 6.25366ZM329.968 8.76244C333.567 9.42919 337.211 10.2374 340.8 11.1668C341.599 11.3738 342.449 11.2547 343.163 10.8357C343.878 10.4166 344.398 9.73185 344.609 8.93215C344.821 8.13245 344.706 7.28326 344.291 6.57139C343.875 5.85952 343.193 5.3433 342.394 5.13626C338.665 4.17188 334.878 3.3315 331.135 2.63836C330.324 2.48823 329.484 2.66683 328.801 3.13483C328.117 3.60282 327.647 4.3219 327.492 5.13388C327.338 5.94588 327.512 6.78426 327.977 7.46458C328.441 8.1449 329.158 8.61144 329.97 8.76158M359.39 17.1642C362.803 18.4864 366.246 19.9455 369.623 21.5014C370.371 21.8463 371.228 21.8791 372.004 21.5925C372.781 21.3059 373.413 20.7234 373.762 19.9732C374.111 19.223 374.149 18.3665 373.866 17.5921C373.583 16.8177 373.004 16.1888 372.255 15.8439C368.765 14.2331 365.202 12.7249 361.669 11.3557C360.902 11.0669 360.05 11.0931 359.298 11.4287C358.547 11.7641 357.957 12.3819 357.657 13.1474C357.357 13.9129 357.37 14.7644 357.695 15.5166C358.019 16.2688 358.629 16.8609 359.39 17.1642ZM386.955 30.5938C390.113 32.4561 393.289 34.4493 396.389 36.5106C396.728 36.7545 397.113 36.9273 397.521 37.0186C397.929 37.11 398.352 37.1181 398.764 37.0424C399.177 36.9667 399.57 36.8089 399.92 36.5782C400.271 36.3476 400.572 36.0489 400.805 35.7C401.038 35.3511 401.199 34.9592 401.278 34.5477C401.356 34.1362 401.351 33.7135 401.263 33.3049C401.174 32.8963 401.004 32.5102 400.762 32.1696C400.521 31.829 400.213 31.541 399.857 31.3227C396.665 29.1994 393.397 27.1505 390.142 25.2299C389.432 24.8112 388.583 24.6922 387.783 24.8993C386.982 25.1063 386.294 25.6225 385.871 26.3341C385.449 27.0457 385.325 27.8945 385.528 28.6938C385.731 29.4932 386.244 30.1775 386.953 30.5963M412.212 48.0954C415.08 50.3951 417.95 52.8106 420.745 55.2792C421.05 55.5568 421.407 55.7707 421.795 55.9086C422.184 56.0465 422.597 56.1056 423.009 56.0825C423.422 56.0593 423.826 55.9544 424.199 55.7738C424.571 55.5933 424.904 55.3406 425.179 55.0306C425.453 54.7207 425.664 54.3595 425.798 53.9682C425.932 53.5769 425.987 53.1633 425.959 52.7515C425.932 52.3396 425.823 51.9378 425.639 51.5693C425.454 51.2008 425.198 50.8731 424.885 50.6052C422.016 48.0708 419.07 45.5893 416.126 43.2295C415.524 42.7475 414.763 42.5076 413.99 42.5563C413.218 42.605 412.491 42.9388 411.948 43.4929C411.406 44.0469 411.088 44.7816 411.057 45.554C411.026 46.3265 411.283 47.0815 411.778 47.6723C411.908 47.826 412.052 47.9669 412.209 48.0931M465.541 102.299C465.881 102.07 466.174 101.777 466.401 101.436C466.629 101.095 466.787 100.713 466.867 100.312C466.947 99.9107 466.948 99.498 466.868 99.0974C466.789 98.6968 466.631 98.3162 466.404 97.9774C464.309 94.8472 462.086 91.6976 459.804 88.6251C459.561 88.2975 459.256 88.0214 458.905 87.8125C458.555 87.6035 458.166 87.4659 457.761 87.4074C457.357 87.3488 456.944 87.3706 456.547 87.4714C456.15 87.5722 455.776 87.7501 455.447 87.9949C455.118 88.2397 454.841 88.5465 454.63 88.898C454.419 89.2495 454.279 89.6387 454.218 90.0434C454.157 90.4481 454.177 90.8604 454.276 91.2566C454.375 91.6529 454.55 92.0255 454.794 92.353C457.018 95.3486 459.18 98.4125 461.22 101.46C461.285 101.556 461.354 101.648 461.429 101.737C461.923 102.319 462.615 102.699 463.374 102.803C464.132 102.907 464.904 102.727 465.541 102.299ZM434.913 68.8687C437.476 71.5368 440.016 74.301 442.458 77.0855C442.724 77.3947 443.049 77.6483 443.413 77.8316C443.778 78.015 444.176 78.1246 444.583 78.1541C445.407 78.2138 446.222 77.9439 446.85 77.4037C447.161 77.1363 447.416 76.8105 447.602 76.4451C447.787 76.0796 447.899 75.6817 447.931 75.2739C447.963 74.8661 447.914 74.4565 447.787 74.0684C447.66 73.6803 447.458 73.3214 447.192 73.0122L447.153 72.9661C444.648 70.1119 442.045 67.2761 439.417 64.5413C438.858 63.9609 438.093 63.6215 437.286 63.5949C436.478 63.5682 435.69 63.8563 435.088 64.3984C434.486 64.9404 434.117 65.694 434.059 66.5001C434.001 67.3061 434.258 68.1014 434.777 68.7182C434.82 68.7694 434.864 68.8212 434.913 68.8682" fill="#F4831F"/>
</svg>
