<svg width="277" height="246" viewBox="0 0 277 246" fill="none" xmlns="http://www.w3.org/2000/svg">
<path d="M275.955 45.9621C275.778 46.8558 275.253 47.6424 274.496 48.149C273.738 48.6557 272.811 48.8407 271.917 48.6636C267.993 47.8785 264.017 47.3772 260.021 47.1635C259.111 47.117 258.256 46.7109 257.646 46.0346C257.035 45.3583 256.717 44.4672 256.764 43.5574C256.81 42.6476 257.216 41.7935 257.892 41.1831C258.568 40.5727 259.46 40.2559 260.37 40.3025C264.697 40.5322 269.002 41.0735 273.252 41.9224C274.031 42.0771 274.733 42.4971 275.238 43.1108C275.743 43.7246 276.02 44.4941 276.021 45.2886C276.021 45.515 275.999 45.74 275.955 45.9621ZM239.332 49.2909C235.548 50.3407 231.887 51.7869 228.408 53.6054C227.601 54.0283 226.659 54.1133 225.789 53.8417C224.919 53.5702 224.192 52.9643 223.769 52.1574C223.345 51.3504 223.26 50.4086 223.531 49.539C223.802 48.6694 224.408 47.9432 225.215 47.5204C229.123 45.4771 233.236 43.8518 237.486 42.6715C237.921 42.5507 238.375 42.5166 238.823 42.5712C239.271 42.6259 239.704 42.7682 240.097 42.9901C240.49 43.2119 240.835 43.509 241.114 43.8643C241.392 44.2196 241.597 44.6261 241.718 45.0608C241.84 45.4954 241.874 45.9496 241.819 46.3974C241.765 46.8452 241.623 47.2778 241.401 47.6706C241.179 48.0634 240.882 48.4087 240.527 48.6867C240.171 48.9647 239.765 49.17 239.33 49.2909M211.914 66.392C208.989 69.2811 206.141 72.1104 203.369 74.88L203.061 75.1864C202.743 75.5117 202.363 75.7706 201.944 75.948C201.525 76.1254 201.075 76.2178 200.62 76.2198C200.164 76.2218 199.713 76.1334 199.292 75.9596C198.872 75.7859 198.489 75.5304 198.168 75.2079C197.847 74.8853 197.593 74.5022 197.421 74.0808C197.249 73.6594 197.162 73.2081 197.166 72.753C197.17 72.2979 197.265 71.8483 197.444 71.43C197.623 71.0118 197.884 70.6333 198.211 70.3167L198.518 70.0103C201.302 67.2396 204.157 64.4043 207.083 61.5044C207.737 60.897 208.602 60.5679 209.495 60.5868C210.387 60.6057 211.238 60.9711 211.866 61.6056C212.494 62.2401 212.85 63.0939 212.86 63.9864C212.869 64.8788 212.531 65.7398 211.917 66.3871M187.351 90.6508C183.982 93.8901 180.972 96.7041 178.155 99.2557C177.822 99.5671 177.43 99.809 177.002 99.9674C176.575 100.126 176.12 100.198 175.664 100.178C175.208 100.159 174.761 100.05 174.348 99.8558C173.935 99.6621 173.564 99.3881 173.258 99.0499C172.952 98.7117 172.717 98.316 172.565 97.8858C172.414 97.4557 172.349 96.9998 172.376 96.5446C172.402 96.0894 172.519 95.6441 172.72 95.2346C172.92 94.8251 173.2 94.4596 173.543 94.1595C176.311 91.6567 179.271 88.8876 182.59 85.698C183.247 85.0666 184.128 84.7219 185.039 84.7399C185.95 84.7578 186.817 85.1368 187.449 85.7936C187.762 86.1188 188.008 86.5024 188.172 86.9225C188.337 87.3426 188.417 87.791 188.408 88.242C188.391 89.1529 188.012 90.0194 187.355 90.6508M160.847 113.427C157.367 115.943 153.745 118.256 150 120.357C149.205 120.778 148.277 120.872 147.414 120.617C146.551 120.362 145.823 119.779 145.385 118.994C144.947 118.208 144.834 117.282 145.071 116.415C145.309 115.548 145.877 114.808 146.653 114.355C150.171 112.38 153.572 110.204 156.841 107.84C157.207 107.577 157.622 107.389 158.062 107.286C158.501 107.184 158.956 107.169 159.402 107.242C159.847 107.316 160.273 107.476 160.657 107.714C161.04 107.952 161.373 108.264 161.636 108.63C161.899 108.997 162.087 109.412 162.19 109.851C162.292 110.29 162.308 110.745 162.234 111.19C162.161 111.636 162.001 112.062 161.763 112.445C161.525 112.828 161.213 113.16 160.847 113.423M128.624 128.586C125.518 129.247 122.369 129.689 119.201 129.909C117.989 129.991 116.778 130.05 115.603 130.079C114.692 130.101 113.809 129.761 113.149 129.132C112.489 128.504 112.105 127.639 112.083 126.729C112.06 125.818 112.4 124.936 113.029 124.276C113.657 123.616 114.522 123.233 115.433 123.211C116.507 123.184 117.615 123.128 118.726 123.055C121.574 122.857 124.405 122.459 127.197 121.866C127.639 121.769 128.097 121.761 128.542 121.842C128.988 121.922 129.413 122.09 129.794 122.335C130.174 122.581 130.503 122.899 130.76 123.272C131.017 123.644 131.198 124.064 131.293 124.507C131.387 124.949 131.393 125.406 131.31 125.851C131.228 126.296 131.058 126.721 130.811 127.1C130.563 127.479 130.243 127.805 129.869 128.06C129.496 128.315 129.075 128.494 128.632 128.586M97.1627 124.617C96.8657 125.479 96.2387 126.187 95.4196 126.586C94.6004 126.985 93.6561 127.042 92.7944 126.745C88.6338 125.299 84.6373 123.418 80.871 121.134C80.0907 120.663 79.5293 119.902 79.3103 119.018C79.0914 118.133 79.2328 117.198 79.7035 116.418C80.1742 115.638 80.9357 115.078 81.8203 114.859C82.705 114.64 83.6403 114.782 84.4207 115.253C87.7701 117.291 91.3276 118.966 95.0326 120.249C95.4596 120.396 95.8535 120.625 96.1917 120.924C96.53 121.223 96.8059 121.586 97.0039 121.991C97.2018 122.397 97.3177 122.838 97.3451 123.288C97.3725 123.739 97.3108 124.19 97.1635 124.617M68.0619 106.806C67.7395 107.122 67.3581 107.371 66.9394 107.539C66.5208 107.707 66.0731 107.791 65.6219 107.786C65.1707 107.781 64.7248 107.687 64.3098 107.51C63.8948 107.333 63.5189 107.075 63.2033 106.753C60.4468 103.939 57.6575 100.838 54.668 97.2765C54.3781 96.9307 54.1591 96.5313 54.0235 96.101C53.8879 95.6707 53.8384 95.2179 53.8779 94.7686C53.9174 94.3192 54.045 93.8821 54.2535 93.4821C54.462 93.0821 54.7472 92.7271 55.093 92.4374C55.4388 92.1477 55.8383 91.9289 56.2687 91.7935C56.6991 91.6582 57.152 91.6089 57.6015 91.6485C58.0511 91.6881 58.4884 91.8159 58.8886 92.0244C59.2889 92.233 59.6441 92.5183 59.9341 92.864C62.8069 96.2888 65.4804 99.261 68.1137 101.949C68.4296 102.271 68.6788 102.653 68.8472 103.071C69.0155 103.49 69.0998 103.938 69.095 104.389C69.0903 104.84 68.9967 105.286 68.8195 105.7C68.6424 106.115 68.3852 106.491 68.0627 106.806M45.8415 80.4721C45.4781 80.7399 45.0655 80.9335 44.6272 81.0418C44.1888 81.1501 43.7334 81.1709 43.287 81.1032C42.8405 81.0354 42.4118 80.8804 42.0252 80.6469C41.6387 80.4134 41.302 80.1061 41.0343 79.7425C38.9572 76.9198 36.6867 73.791 33.673 69.5984C33.4096 69.232 33.221 68.8173 33.1179 68.3781C33.0147 67.9388 32.9992 67.4837 33.072 67.0385C33.1449 66.5933 33.3048 66.1669 33.5425 65.7835C33.7803 65.4002 34.0913 65.0674 34.4577 64.8042C34.8242 64.5411 35.2389 64.3527 35.6783 64.2498C36.1176 64.1468 36.573 64.1314 37.0183 64.2045C37.4637 64.2775 37.8903 64.4374 38.2739 64.6753C38.6575 64.9131 38.9905 65.2241 39.2539 65.5905C42.2522 69.7627 44.5079 72.8711 46.5695 75.6727C46.8377 76.036 47.0316 76.4485 47.1401 76.8867C47.2487 77.325 47.2698 77.7802 47.2021 78.2265C47.1345 78.6728 46.9795 79.1014 46.7461 79.4877C46.5126 79.874 46.2052 80.2104 45.8415 80.4778M25.6412 52.5247C24.9038 53.06 23.9837 53.2804 23.0834 53.1374C22.1831 52.9945 21.3763 52.4999 20.8406 51.7625C18.2038 48.134 15.7906 44.8506 13.4639 41.7268C12.9196 40.9957 12.6881 40.0786 12.8202 39.1772C12.9523 38.2758 13.4372 37.4638 14.1684 36.92C14.8994 36.3763 15.8168 36.1452 16.7186 36.2776C17.6205 36.41 18.4329 36.895 18.9771 37.6261C21.3193 40.7719 23.7488 44.0748 26.4011 47.7278C26.6665 48.0927 26.8574 48.5064 26.9628 48.9451C27.0682 49.3837 27.0862 49.8388 27.0156 50.2844C26.9451 50.7299 26.7874 51.1572 26.5516 51.5418C26.3157 51.9263 26.0064 52.2598 25.6412 52.5247ZM4.29659 25.4821C3.99886 25.8209 3.63725 26.0978 3.2324 26.2969C2.82752 26.496 2.38734 26.6133 1.93702 26.6423C1.4867 26.6713 1.03507 26.6113 0.607881 26.4657C0.180694 26.3202 -0.213653 26.0919 -0.552624 25.794C-3.54547 23.1643 -6.74552 20.7801 -10.1216 18.6645C-10.5042 18.425 -10.8358 18.1125 -11.0976 17.745C-11.3594 17.3774 -11.5462 16.9619 -11.6474 16.5222C-11.7486 16.0825 -11.7622 15.6272 -11.6874 15.1824C-11.6125 14.7375 -11.4508 14.3117 -11.2113 13.9294C-10.9719 13.5471 -10.6595 13.2157 -10.2918 12.9542C-9.92423 12.6926 -9.50869 12.506 -9.06886 12.405C-8.62905 12.304 -8.17359 12.2906 -7.72854 12.3656C-7.28348 12.4406 -6.85753 12.6024 -6.47498 12.8419C-2.78538 15.1537 0.711594 17.7595 3.98187 20.6337C4.32108 20.9314 4.59829 21.293 4.79767 21.6978C4.99701 22.1026 5.11463 22.5426 5.1438 22.9928C5.17297 23.443 5.11305 23.8945 4.96757 24.3215C4.82206 24.7485 4.59378 25.1426 4.29577 25.4813M-25.028 7.79998C-25.154 8.23314 -25.364 8.63723 -25.6462 8.98919C-25.9284 9.34114 -26.2771 9.63404 -26.6726 9.85118C-27.0681 10.0683 -27.5025 10.2055 -27.9511 10.2548C-28.3997 10.304 -28.8536 10.2645 -29.2869 10.1384C-33.1349 9.02616 -37.0555 8.18313 -41.0204 7.61543C-41.4671 7.551 -41.8967 7.39925 -42.2848 7.16885C-42.6728 6.93845 -43.0117 6.63393 -43.2821 6.27266C-43.5524 5.91138 -43.749 5.50045 -43.8605 5.0633C-43.972 4.62615 -43.9963 4.17136 -43.932 3.72489C-43.8677 3.27842 -43.7161 2.84901 -43.4857 2.4612C-43.2554 2.07338 -42.9509 1.73473 -42.5896 1.4646C-42.2283 1.19447 -41.8173 0.998164 -41.38 0.886843C-40.9428 0.775537 -40.4878 0.751407 -40.0412 0.815845C-35.7586 1.4284 -31.524 2.33898 -27.3682 3.54093C-26.6543 3.74839 -26.0269 4.18152 -25.5799 4.77538C-25.133 5.36925 -24.8905 6.09186 -24.889 6.83489C-24.8885 7.16131 -24.9351 7.48606 -25.0272 7.79916M-62.2499 6.86853C-66.1941 7.12366 -70.2563 7.59388 -74.323 8.26116C-74.7683 8.33455 -75.2237 8.31956 -75.6633 8.21701C-76.1028 8.11448 -76.5179 7.9264 -76.8848 7.66354C-77.2517 7.40067 -77.5632 7.06818 -77.8016 6.68501C-78.04 6.30183 -78.2006 5.87551 -78.2742 5.43037C-78.3478 4.98522 -78.3329 4.52998 -78.2305 4.09064C-78.1281 3.65128 -77.9402 3.23643 -77.6773 2.86977C-77.4145 2.5031 -77.082 2.1918 -76.6988 1.95364C-76.3156 1.71547 -75.8891 1.55512 -75.4439 1.48172C-71.1547 0.775198 -66.8662 0.280418 -62.6963 0.00721573C-62.246 -0.0219308 -61.7944 0.0378804 -61.3671 0.183219C-60.9399 0.328572 -60.5454 0.55662 -60.2063 0.854317C-59.8671 1.15203 -59.5899 1.51356 -59.3905 1.9183C-59.1911 2.32305 -59.0734 2.76307 -59.0441 3.21322C-59.0392 3.28814 -59.0358 3.36223 -59.0357 3.43633C-59.0359 4.30872 -59.3681 5.14824 -59.9648 5.78457C-60.5616 6.42091 -61.3782 6.80641 -62.2491 6.86284M-95.174 13.352C-98.9934 14.5818 -102.861 15.99 -106.67 17.5374C-107.089 17.7147 -107.54 17.8068 -107.995 17.8085C-108.451 17.8102 -108.902 17.7215 -109.323 17.5473C-109.744 17.3732 -110.126 17.1172 -110.447 16.7942C-110.768 16.4712 -111.022 16.0877 -111.193 15.6659C-111.365 15.2441 -111.451 14.7925 -111.446 14.3372C-111.442 13.882 -111.347 13.4322 -111.167 13.0141C-110.987 12.5959 -110.725 12.2177 -110.398 11.9015C-110.07 11.5852 -109.683 11.3372 -109.259 11.1718C-105.293 9.56161 -101.264 8.09469 -97.2836 6.81265C-96.8541 6.6744 -96.4015 6.62209 -95.9518 6.65868C-95.5019 6.69526 -95.0638 6.82006 -94.6622 7.02593C-94.2606 7.23179 -93.9034 7.51467 -93.6112 7.85846C-93.3189 8.20224 -93.0972 8.60022 -92.9587 9.0296C-92.8203 9.45897 -92.7677 9.91137 -92.8042 10.361C-92.8406 10.8106 -92.9653 11.2486 -93.1711 11.6499C-93.3769 12.0513 -93.6597 12.4082 -94.0035 12.7002C-94.3473 12.9923 -94.7446 13.2137 -95.174 13.352ZM-126.125 26.8521C-129.682 28.8227 -133.226 30.94 -136.658 33.1459C-137.425 33.6385 -138.355 33.8064 -139.246 33.6127C-140.137 33.4191 -140.914 32.8797 -141.407 32.1134C-141.9 31.347 -142.068 30.4163 -141.875 29.5262C-141.681 28.636 -141.142 27.8592 -140.376 27.3667C-136.818 25.0841 -133.145 22.8829 -129.457 20.8445C-129.063 20.6259 -128.629 20.4872 -128.181 20.4363C-127.732 20.3853 -127.278 20.4232 -126.844 20.5476C-126.41 20.6721 -126.005 20.8808 -125.652 21.1617C-125.299 21.4426 -125.005 21.7904 -124.786 22.185C-124.567 22.5796 -124.428 23.0134 -124.377 23.4617C-124.326 23.9099 -124.363 24.3638 -124.488 24.7974C-124.612 25.231 -124.821 25.6358 -125.102 25.9888C-125.383 26.3417 -125.73 26.6359 -126.125 26.8545M-154.116 45.8428C-155.549 47.0181 -156.978 48.2276 -158.362 49.4353C-160.034 50.8941 -161.699 52.4075 -163.306 53.9322C-163.633 54.2426 -164.018 54.4854 -164.44 54.6468C-164.861 54.8083 -165.31 54.8852 -165.761 54.8731C-166.212 54.8611 -166.657 54.7603 -167.069 54.5766C-167.481 54.3929 -167.853 54.1298 -168.164 53.8024C-168.474 53.475 -168.718 53.0897 -168.879 52.6685C-169.041 52.2472 -169.118 51.7983 -169.106 51.3473C-169.094 50.8964 -168.993 50.4522 -168.81 50.0402C-168.626 49.6282 -168.363 49.2564 -168.036 48.946C-166.359 47.3569 -164.627 45.7792 -162.886 44.2592C-161.448 43.0042 -159.965 41.7491 -158.477 40.5298C-157.772 39.952 -156.867 39.6777 -155.96 39.7673C-155.053 39.8569 -154.218 40.3029 -153.64 41.0074C-153.062 41.7118 -152.787 42.6169 -152.876 43.5236C-152.966 44.4303 -153.412 45.2651 -154.116 45.8428ZM-177.94 69.7266C-180.491 72.8603 -182.978 76.1454 -185.333 79.4931C-185.857 80.2386 -186.656 80.7452 -187.555 80.9016C-188.453 81.058 -189.376 80.8513 -190.122 80.327C-190.868 79.8027 -191.375 79.0037 -191.532 78.1058C-191.689 77.208 -191.483 76.2847 -190.958 75.5393C-188.511 72.062 -185.926 68.6473 -183.273 65.389C-182.698 64.6826 -181.865 64.2336 -180.959 64.1409C-180.052 64.0482 -179.146 64.3193 -178.439 64.8946C-177.732 65.4699 -177.283 66.3023 -177.189 67.2086C-177.096 68.115 -177.367 69.021 -177.943 69.7274M-196.692 97.8349C-198.62 101.389 -200.476 105.08 -202.207 108.805C-202.591 109.631 -203.288 110.271 -204.144 110.583C-205 110.896 -205.945 110.856 -206.772 110.471C-207.598 110.087 -208.238 109.391 -208.551 108.535C-208.864 107.679 -208.824 106.734 -208.44 105.908C-206.652 102.055 -204.73 98.237 -202.734 94.5572C-202.295 93.7655 -201.56 93.1792 -200.691 92.926C-199.821 92.6728 -198.886 92.7731 -198.09 93.205C-197.294 93.637 -196.7 94.3658 -196.438 95.2328C-196.176 96.0998 -196.267 97.035 -196.692 97.8349ZM-210.31 128.862C-211.64 132.691 -212.892 136.642 -214.031 140.596C-214.143 141.044 -214.344 141.465 -214.622 141.834C-214.9 142.203 -215.249 142.511 -215.65 142.742C-216.05 142.973 -216.492 143.12 -216.951 143.176C-217.409 143.231 -217.875 143.194 -218.318 143.066C-218.762 142.938 -219.176 142.722 -219.534 142.43C-219.893 142.139 -220.189 141.778 -220.405 141.37C-220.621 140.962 -220.752 140.514 -220.791 140.054C-220.83 139.594 -220.776 139.131 -220.632 138.692C-219.459 134.62 -218.169 130.555 -216.799 126.609C-216.5 125.748 -215.872 125.042 -215.052 124.644C-214.232 124.247 -213.287 124.192 -212.426 124.491C-211.565 124.79 -210.858 125.419 -210.461 126.239C-210.063 127.059 -210.008 128.003 -210.306 128.863M-219.094 161.68C-219.87 165.671 -220.565 169.76 -221.159 173.841C-221.218 174.293 -221.366 174.728 -221.594 175.122C-221.823 175.516 -222.127 175.861 -222.491 176.136C-222.854 176.411 -223.268 176.611 -223.709 176.725C-224.151 176.838 -224.61 176.863 -225.061 176.797C-225.512 176.732 -225.945 176.577 -226.336 176.342C-226.727 176.107 -227.067 175.797 -227.337 175.43C-227.606 175.063 -227.8 174.646 -227.907 174.203C-228.014 173.76 -228.032 173.3 -227.959 172.85C-227.349 168.661 -226.638 164.462 -225.841 160.366C-225.677 159.529 -225.208 158.783 -224.525 158.273C-223.842 157.762 -222.993 157.524 -222.143 157.605C-221.294 157.686 -220.505 158.079 -219.93 158.709C-219.354 159.339 -219.034 160.16 -219.03 161.013C-219.03 161.235 -219.051 161.457 -219.093 161.676M-225.384 245.54C-225.833 245.59 -226.287 245.551 -226.72 245.426C-227.153 245.3 -227.558 245.091 -227.911 244.809C-228.263 244.527 -228.557 244.179 -228.775 243.784C-228.992 243.389 -229.13 242.955 -229.18 242.507C-229.644 238.367 -230.014 234.119 -230.281 229.896C-230.31 229.445 -230.249 228.994 -230.103 228.567C-229.957 228.14 -229.728 227.747 -229.43 227.408C-229.132 227.07 -228.769 226.794 -228.364 226.595C-227.959 226.397 -227.519 226.28 -227.068 226.252C-226.618 226.223 -226.166 226.284 -225.739 226.43C-225.312 226.577 -224.918 226.805 -224.58 227.104C-224.241 227.402 -223.964 227.764 -223.766 228.169C-223.567 228.575 -223.45 229.015 -223.422 229.465C-223.162 233.583 -222.801 237.715 -222.35 241.745C-222.335 241.872 -222.329 242 -222.329 242.128C-222.329 242.973 -222.641 243.788 -223.205 244.417C-223.768 245.047 -224.544 245.446 -225.384 245.54ZM-223.406 195.435C-223.664 199.519 -223.834 203.667 -223.907 207.762C-223.91 208.214 -224.003 208.659 -224.179 209.075C-224.355 209.49 -224.611 209.866 -224.933 210.183C-225.583 210.821 -226.46 211.176 -227.371 211.168C-227.822 211.164 -228.268 211.071 -228.684 210.895C-229.099 210.719 -229.476 210.463 -229.793 210.141C-230.109 209.819 -230.359 209.439 -230.528 209.02C-230.698 208.602 -230.783 208.155 -230.779 207.704L-230.779 207.637C-230.702 203.437 -230.531 199.184 -230.266 194.997C-230.208 194.108 -229.807 193.275 -229.148 192.676C-228.488 192.077 -227.621 191.757 -226.73 191.785C-225.839 191.813 -224.993 192.185 -224.372 192.825C-223.75 193.464 -223.401 194.319 -223.399 195.211C-223.399 195.285 -223.399 195.36 -223.407 195.435" fill="#F4831F"/>
</svg>
