<svg width="335" height="246" viewBox="0 0 335 246" fill="none" xmlns="http://www.w3.org/2000/svg">
<path d="M333.955 45.9621C333.778 46.8558 333.253 47.6424 332.496 48.149C331.738 48.6557 330.811 48.8407 329.917 48.6636C325.993 47.8785 322.017 47.3772 318.021 47.1635C317.111 47.117 316.256 46.7109 315.646 46.0346C315.035 45.3583 314.717 44.4672 314.764 43.5574C314.81 42.6476 315.216 41.7935 315.892 41.1831C316.568 40.5727 317.46 40.2559 318.37 40.3025C322.697 40.5322 327.002 41.0735 331.252 41.9224C332.031 42.0771 332.733 42.4971 333.238 43.1108C333.743 43.7246 334.02 44.4941 334.021 45.2886C334.021 45.515 333.999 45.74 333.955 45.9621ZM297.332 49.2909C293.548 50.3407 289.887 51.7869 286.408 53.6054C285.601 54.0283 284.659 54.1133 283.789 53.8417C282.919 53.5702 282.192 52.9643 281.769 52.1574C281.345 51.3504 281.26 50.4086 281.531 49.539C281.802 48.6694 282.408 47.9432 283.215 47.5204C287.123 45.4771 291.236 43.8518 295.486 42.6715C295.921 42.5507 296.375 42.5166 296.823 42.5712C297.271 42.6259 297.704 42.7682 298.097 42.9901C298.49 43.2119 298.835 43.509 299.114 43.8643C299.392 44.2196 299.597 44.6261 299.718 45.0608C299.84 45.4954 299.874 45.9496 299.819 46.3974C299.765 46.8452 299.623 47.2778 299.401 47.6706C299.179 48.0634 298.882 48.4087 298.527 48.6867C298.171 48.9647 297.765 49.17 297.33 49.2909M269.914 66.392C266.989 69.2811 264.141 72.1104 261.369 74.88L261.061 75.1864C260.743 75.5117 260.363 75.7706 259.944 75.948C259.525 76.1254 259.075 76.2178 258.62 76.2198C258.164 76.2218 257.713 76.1334 257.292 75.9596C256.872 75.7859 256.489 75.5304 256.168 75.2079C255.847 74.8853 255.593 74.5022 255.421 74.0808C255.249 73.6594 255.162 73.2081 255.166 72.753C255.17 72.2979 255.265 71.8483 255.444 71.43C255.623 71.0118 255.884 70.6333 256.211 70.3167L256.518 70.0103C259.302 67.2396 262.157 64.4043 265.083 61.5044C265.737 60.897 266.602 60.5679 267.495 60.5868C268.387 60.6057 269.238 60.9711 269.866 61.6056C270.494 62.2401 270.85 63.0939 270.86 63.9864C270.869 64.8788 270.531 65.7398 269.917 66.3871M245.351 90.6508C241.982 93.8901 238.972 96.7041 236.155 99.2557C235.822 99.5671 235.43 99.809 235.002 99.9674C234.575 100.126 234.12 100.198 233.664 100.178C233.208 100.159 232.761 100.05 232.348 99.8558C231.935 99.6621 231.564 99.3881 231.258 99.0499C230.952 98.7117 230.717 98.316 230.565 97.8858C230.414 97.4557 230.349 96.9998 230.376 96.5446C230.402 96.0894 230.519 95.6441 230.72 95.2346C230.92 94.8251 231.2 94.4596 231.543 94.1595C234.311 91.6567 237.271 88.8876 240.59 85.698C241.247 85.0666 242.128 84.7219 243.039 84.7399C243.95 84.7578 244.817 85.1368 245.449 85.7936C245.762 86.1188 246.008 86.5024 246.172 86.9225C246.337 87.3426 246.417 87.791 246.408 88.242C246.391 89.1529 246.012 90.0194 245.355 90.6508M218.847 113.427C215.367 115.943 211.745 118.256 208 120.357C207.205 120.778 206.277 120.872 205.414 120.617C204.551 120.362 203.823 119.779 203.385 118.994C202.947 118.208 202.834 117.282 203.071 116.415C203.309 115.548 203.877 114.808 204.653 114.355C208.171 112.38 211.572 110.204 214.841 107.84C215.207 107.577 215.622 107.389 216.062 107.286C216.501 107.184 216.956 107.169 217.402 107.242C217.847 107.316 218.273 107.476 218.657 107.714C219.04 107.952 219.373 108.264 219.636 108.63C219.899 108.997 220.087 109.412 220.19 109.851C220.292 110.29 220.308 110.745 220.234 111.19C220.161 111.636 220.001 112.062 219.763 112.445C219.525 112.828 219.213 113.16 218.847 113.423M186.624 128.586C183.518 129.247 180.369 129.689 177.201 129.909C175.989 129.991 174.778 130.05 173.603 130.079C172.692 130.101 171.809 129.761 171.149 129.132C170.489 128.504 170.105 127.639 170.083 126.729C170.06 125.818 170.4 124.936 171.029 124.276C171.657 123.616 172.522 123.233 173.433 123.211C174.507 123.184 175.615 123.128 176.726 123.055C179.574 122.857 182.405 122.459 185.197 121.866C185.639 121.769 186.097 121.761 186.542 121.842C186.988 121.922 187.413 122.09 187.794 122.335C188.174 122.581 188.503 122.899 188.76 123.272C189.017 123.644 189.198 124.064 189.293 124.507C189.387 124.949 189.393 125.406 189.31 125.851C189.228 126.296 189.058 126.721 188.811 127.1C188.563 127.479 188.243 127.805 187.869 128.06C187.496 128.315 187.075 128.494 186.632 128.586M155.163 124.617C154.866 125.479 154.239 126.187 153.42 126.586C152.6 126.985 151.656 127.042 150.794 126.745C146.634 125.299 142.637 123.418 138.871 121.134C138.091 120.663 137.529 119.902 137.31 119.018C137.091 118.133 137.233 117.198 137.704 116.418C138.174 115.638 138.936 115.078 139.82 114.859C140.705 114.64 141.64 114.782 142.421 115.253C145.77 117.291 149.328 118.966 153.033 120.249C153.46 120.396 153.853 120.625 154.192 120.924C154.53 121.223 154.806 121.586 155.004 121.991C155.202 122.397 155.318 122.838 155.345 123.288C155.373 123.739 155.311 124.19 155.163 124.617M126.062 106.806C125.74 107.122 125.358 107.371 124.939 107.539C124.521 107.707 124.073 107.791 123.622 107.786C123.171 107.781 122.725 107.687 122.31 107.51C121.895 107.333 121.519 107.075 121.203 106.753C118.447 103.939 115.657 100.838 112.668 97.2765C112.378 96.9307 112.159 96.5313 112.023 96.101C111.888 95.6707 111.838 95.2179 111.878 94.7686C111.917 94.3192 112.045 93.8821 112.253 93.4821C112.462 93.0821 112.747 92.7271 113.093 92.4374C113.439 92.1477 113.838 91.9289 114.269 91.7935C114.699 91.6582 115.152 91.6089 115.602 91.6485C116.051 91.6881 116.488 91.8159 116.889 92.0244C117.289 92.233 117.644 92.5183 117.934 92.864C120.807 96.2888 123.48 99.261 126.114 101.949C126.43 102.271 126.679 102.653 126.847 103.071C127.016 103.49 127.1 103.938 127.095 104.389C127.09 104.84 126.997 105.286 126.82 105.7C126.642 106.115 126.385 106.491 126.063 106.806M103.841 80.4721C103.478 80.7399 103.065 80.9335 102.627 81.0418C102.189 81.1501 101.733 81.1709 101.287 81.1032C100.841 81.0354 100.412 80.8804 100.025 80.6469C99.6387 80.4134 99.302 80.1061 99.0343 79.7425C96.9572 76.9198 94.6867 73.791 91.673 69.5984C91.4096 69.232 91.221 68.8173 91.1179 68.3781C91.0147 67.9388 90.9992 67.4837 91.072 67.0385C91.1449 66.5933 91.3048 66.1669 91.5425 65.7835C91.7803 65.4002 92.0913 65.0674 92.4577 64.8042C92.8242 64.5411 93.2389 64.3527 93.6783 64.2498C94.1176 64.1468 94.573 64.1314 95.0183 64.2045C95.4637 64.2775 95.8903 64.4374 96.2739 64.6753C96.6575 64.9131 96.9905 65.2241 97.2539 65.5905C100.252 69.7627 102.508 72.8711 104.57 75.6727C104.838 76.036 105.032 76.4485 105.14 76.8867C105.249 77.325 105.27 77.7802 105.202 78.2265C105.135 78.6728 104.98 79.1014 104.746 79.4877C104.513 79.874 104.205 80.2104 103.841 80.4778M83.6412 52.5247C82.9038 53.06 81.9837 53.2804 81.0834 53.1374C80.1831 52.9945 79.3763 52.4999 78.8406 51.7625C76.2038 48.134 73.7906 44.8506 71.4639 41.7268C70.9196 40.9957 70.6881 40.0786 70.8202 39.1772C70.9523 38.2758 71.4372 37.4638 72.1684 36.92C72.8994 36.3763 73.8168 36.1452 74.7186 36.2776C75.6205 36.41 76.4329 36.895 76.9771 37.6261C79.3193 40.7719 81.7488 44.0748 84.4011 47.7278C84.6665 48.0927 84.8574 48.5064 84.9628 48.9451C85.0682 49.3837 85.0862 49.8388 85.0156 50.2844C84.9451 50.7299 84.7874 51.1572 84.5516 51.5418C84.3157 51.9263 84.0064 52.2598 83.6412 52.5247ZM62.2966 25.4821C61.9989 25.8209 61.6372 26.0978 61.2324 26.2969C60.8275 26.496 60.3873 26.6133 59.937 26.6423C59.4867 26.6713 59.0351 26.6113 58.6079 26.4657C58.1807 26.3202 57.7863 26.0919 57.4474 25.794C54.4545 23.1643 51.2545 20.7801 47.8784 18.6645C47.4958 18.425 47.1642 18.1125 46.9024 17.745C46.6406 17.3774 46.4538 16.9619 46.3526 16.5222C46.2514 16.0825 46.2378 15.6272 46.3126 15.1824C46.3875 14.7375 46.5492 14.3117 46.7887 13.9294C47.0281 13.5471 47.3405 13.2157 47.7082 12.9542C48.0758 12.6926 48.4913 12.506 48.9311 12.405C49.3709 12.304 49.8264 12.2906 50.2715 12.3656C50.7165 12.4406 51.1425 12.6024 51.525 12.8419C55.2146 15.1537 58.7116 17.7595 61.9819 20.6337C62.3211 20.9314 62.5983 21.293 62.7977 21.6978C62.997 22.1026 63.1146 22.5426 63.1438 22.9928C63.173 23.443 63.1131 23.8945 62.9676 24.3215C62.8221 24.7485 62.5938 25.1426 62.2958 25.4813M32.972 7.79998C32.846 8.23314 32.636 8.63723 32.3538 8.98919C32.0716 9.34114 31.7229 9.63404 31.3274 9.85118C30.9319 10.0683 30.4975 10.2055 30.0489 10.2548C29.6003 10.304 29.1464 10.2645 28.7131 10.1384C24.8651 9.02616 20.9445 8.18313 16.9796 7.61543C16.5329 7.551 16.1033 7.39925 15.7152 7.16885C15.3272 6.93845 14.9883 6.63393 14.7179 6.27266C14.4476 5.91138 14.251 5.50045 14.1395 5.0633C14.028 4.62615 14.0037 4.17136 14.068 3.72489C14.1323 3.27842 14.2839 2.84901 14.5143 2.4612C14.7446 2.07338 15.0491 1.73473 15.4104 1.4646C15.7717 1.19447 16.1827 0.998164 16.62 0.886843C17.0572 0.775537 17.5122 0.751407 17.9588 0.815845C22.2414 1.4284 26.476 2.33898 30.6318 3.54093C31.3457 3.74839 31.9731 4.18152 32.4201 4.77538C32.867 5.36925 33.1095 6.09186 33.111 6.83489C33.1115 7.16131 33.0649 7.48606 32.9728 7.79916M-4.24991 6.86853C-8.19413 7.12366 -12.2563 7.59388 -16.323 8.26116C-16.7683 8.33455 -17.2237 8.31956 -17.6633 8.21701C-18.1028 8.11448 -18.5179 7.9264 -18.8848 7.66354C-19.2517 7.40067 -19.5632 7.06818 -19.8016 6.68501C-20.04 6.30183 -20.2006 5.87551 -20.2742 5.43037C-20.3478 4.98522 -20.3329 4.52998 -20.2305 4.09064C-20.1281 3.65128 -19.9402 3.23643 -19.6773 2.86977C-19.4145 2.5031 -19.082 2.1918 -18.6988 1.95364C-18.3156 1.71547 -17.8891 1.55512 -17.4439 1.48172C-13.1547 0.775198 -8.86618 0.280418 -4.69633 0.00721573C-4.24601 -0.0219308 -3.79435 0.0378804 -3.3671 0.183219C-2.93986 0.328572 -2.54539 0.55662 -2.20626 0.854317C-1.86711 1.15203 -1.58993 1.51356 -1.39053 1.9183C-1.19112 2.32305 -1.07343 2.76307 -1.04415 3.21322C-1.03915 3.28814 -1.03581 3.36223 -1.03573 3.43633C-1.03593 4.30872 -1.36811 5.14824 -1.96484 5.78457C-2.56161 6.42091 -3.37825 6.80641 -4.24913 6.86284M-37.174 13.352C-40.9934 14.5818 -44.8606 15.99 -48.6698 17.5374C-49.0892 17.7147 -49.5398 17.8068 -49.9952 17.8085C-50.4506 17.8102 -50.9019 17.7215 -51.3227 17.5473C-51.7436 17.3732 -52.1257 17.1172 -52.4468 16.7942C-52.7679 16.4712 -53.0216 16.0877 -53.1931 15.6659C-53.3647 15.2441 -53.4507 14.7925 -53.4462 14.3372C-53.4416 13.882 -53.3466 13.4322 -53.1666 13.0141C-52.9866 12.5959 -52.7254 12.2177 -52.3979 11.9015C-52.0704 11.5852 -51.6833 11.3372 -51.259 11.1718C-47.2934 9.56161 -43.2642 8.09469 -39.2836 6.81265C-38.8541 6.6744 -38.4015 6.62209 -37.9518 6.65868C-37.5019 6.69526 -37.0638 6.82006 -36.6622 7.02593C-36.2606 7.23179 -35.9034 7.51467 -35.6112 7.85846C-35.3189 8.20224 -35.0972 8.60022 -34.9587 9.0296C-34.8203 9.45897 -34.7677 9.91137 -34.8042 10.361C-34.8406 10.8106 -34.9653 11.2486 -35.1711 11.6499C-35.3769 12.0513 -35.6597 12.4082 -36.0035 12.7002C-36.3473 12.9923 -36.7446 13.2137 -37.174 13.352ZM-68.1249 26.8521C-71.682 28.8227 -75.2259 30.94 -78.658 33.1459C-79.4245 33.6385 -80.3554 33.8064 -81.246 33.6127C-82.1366 33.4191 -82.9139 32.8797 -83.4068 32.1134C-83.8998 31.347 -84.0682 30.4163 -83.8748 29.5262C-83.6814 28.636 -83.1421 27.8592 -82.3757 27.3667C-78.8181 25.0841 -75.1448 22.8829 -71.4575 20.8445C-71.0628 20.6259 -70.6289 20.4872 -70.1805 20.4363C-69.7321 20.3853 -69.2781 20.4232 -68.8443 20.5476C-68.4105 20.6721 -68.0054 20.8808 -67.6522 21.1617C-67.299 21.4426 -67.0045 21.7904 -66.7857 22.185C-66.5669 22.5796 -66.428 23.0134 -66.3769 23.4617C-66.3257 23.9099 -66.3634 24.3638 -66.4878 24.7974C-66.6122 25.231 -66.8207 25.6358 -67.1016 25.9888C-67.3825 26.3417 -67.7302 26.6359 -68.1249 26.8545M-96.1161 45.8428C-97.5494 47.0181 -98.9778 48.2276 -100.362 49.4353C-102.034 50.8941 -103.699 52.4075 -105.306 53.9322C-105.633 54.2426 -106.018 54.4854 -106.44 54.6468C-106.861 54.8083 -107.31 54.8852 -107.761 54.8731C-108.212 54.8611 -108.657 54.7603 -109.069 54.5766C-109.481 54.3929 -109.853 54.1298 -110.164 53.8024C-110.474 53.475 -110.718 53.0897 -110.879 52.6685C-111.041 52.2472 -111.118 51.7983 -111.106 51.3473C-111.094 50.8964 -110.993 50.4522 -110.81 50.0402C-110.626 49.6282 -110.363 49.2564 -110.036 48.946C-108.359 47.3569 -106.627 45.7792 -104.886 44.2592C-103.448 43.0042 -101.965 41.7491 -100.477 40.5298C-99.7723 39.952 -98.867 39.6777 -97.9599 39.7673C-97.0529 39.8569 -96.2185 40.3029 -95.6402 41.0074C-95.0619 41.7118 -94.7872 42.6169 -94.8765 43.5236C-94.9657 44.4303 -95.4116 45.2651 -96.1161 45.8428ZM-119.94 69.7266C-122.491 72.8603 -124.978 76.1454 -127.333 79.4931C-127.857 80.2386 -128.656 80.7452 -129.555 80.9016C-130.453 81.058 -131.376 80.8513 -132.122 80.327C-132.868 79.8027 -133.375 79.0037 -133.532 78.1058C-133.689 77.208 -133.483 76.2847 -132.958 75.5393C-130.511 72.062 -127.926 68.6473 -125.273 65.389C-124.698 64.6826 -123.865 64.2336 -122.959 64.1409C-122.052 64.0482 -121.146 64.3193 -120.439 64.8946C-119.732 65.4699 -119.283 66.3023 -119.189 67.2086C-119.096 68.115 -119.367 69.021 -119.943 69.7274M-138.692 97.8349C-140.62 101.389 -142.476 105.08 -144.207 108.805C-144.591 109.631 -145.288 110.271 -146.144 110.583C-147 110.896 -147.945 110.856 -148.772 110.471C-149.598 110.087 -150.238 109.391 -150.551 108.535C-150.864 107.679 -150.824 106.734 -150.44 105.908C-148.652 102.055 -146.73 98.237 -144.734 94.5572C-144.295 93.7655 -143.56 93.1792 -142.691 92.926C-141.821 92.6728 -140.886 92.7731 -140.09 93.205C-139.294 93.637 -138.7 94.3658 -138.438 95.2328C-138.176 96.0998 -138.267 97.035 -138.692 97.8349ZM-152.31 128.862C-153.64 132.691 -154.892 136.642 -156.031 140.596C-156.143 141.044 -156.344 141.465 -156.622 141.834C-156.9 142.203 -157.249 142.511 -157.65 142.742C-158.05 142.973 -158.492 143.12 -158.951 143.176C-159.409 143.231 -159.875 143.194 -160.318 143.066C-160.762 142.938 -161.176 142.722 -161.534 142.43C-161.893 142.139 -162.189 141.778 -162.405 141.37C-162.621 140.962 -162.752 140.514 -162.791 140.054C-162.83 139.594 -162.776 139.131 -162.632 138.692C-161.459 134.62 -160.169 130.555 -158.799 126.609C-158.5 125.748 -157.872 125.042 -157.052 124.644C-156.232 124.247 -155.287 124.192 -154.426 124.491C-153.565 124.79 -152.858 125.419 -152.461 126.239C-152.063 127.059 -152.008 128.003 -152.306 128.863M-161.094 161.68C-161.87 165.671 -162.565 169.76 -163.159 173.841C-163.218 174.293 -163.366 174.728 -163.594 175.122C-163.823 175.516 -164.127 175.861 -164.491 176.136C-164.854 176.411 -165.268 176.611 -165.709 176.725C-166.151 176.838 -166.61 176.863 -167.061 176.797C-167.512 176.732 -167.945 176.577 -168.336 176.342C-168.727 176.107 -169.067 175.797 -169.337 175.43C-169.606 175.063 -169.8 174.646 -169.907 174.203C-170.014 173.76 -170.032 173.3 -169.959 172.85C-169.349 168.661 -168.638 164.462 -167.841 160.366C-167.677 159.529 -167.208 158.783 -166.525 158.273C-165.842 157.762 -164.993 157.524 -164.143 157.605C-163.294 157.686 -162.505 158.079 -161.93 158.709C-161.354 159.339 -161.034 160.16 -161.03 161.013C-161.03 161.235 -161.051 161.457 -161.093 161.676M-167.384 245.54C-167.833 245.59 -168.287 245.551 -168.72 245.426C-169.153 245.3 -169.558 245.091 -169.911 244.809C-170.263 244.527 -170.557 244.179 -170.775 243.784C-170.992 243.389 -171.13 242.955 -171.18 242.507C-171.644 238.367 -172.014 234.119 -172.281 229.896C-172.31 229.445 -172.249 228.994 -172.103 228.567C-171.957 228.14 -171.728 227.747 -171.43 227.408C-171.132 227.07 -170.769 226.794 -170.364 226.595C-169.959 226.397 -169.519 226.28 -169.068 226.252C-168.618 226.223 -168.166 226.284 -167.739 226.43C-167.312 226.577 -166.918 226.805 -166.58 227.104C-166.241 227.402 -165.964 227.764 -165.766 228.169C-165.567 228.575 -165.45 229.015 -165.422 229.465C-165.162 233.583 -164.801 237.715 -164.35 241.745C-164.335 241.872 -164.329 242 -164.329 242.128C-164.329 242.973 -164.641 243.788 -165.205 244.417C-165.768 245.047 -166.544 245.446 -167.384 245.54ZM-165.406 195.435C-165.664 199.519 -165.834 203.667 -165.907 207.762C-165.91 208.214 -166.003 208.659 -166.179 209.075C-166.355 209.49 -166.611 209.866 -166.933 210.183C-167.583 210.821 -168.46 211.176 -169.371 211.168C-169.822 211.164 -170.268 211.071 -170.684 210.895C-171.099 210.719 -171.476 210.463 -171.793 210.141C-172.109 209.819 -172.359 209.439 -172.528 209.02C-172.698 208.602 -172.783 208.155 -172.779 207.704L-172.779 207.637C-172.702 203.437 -172.531 199.184 -172.266 194.997C-172.208 194.108 -171.807 193.275 -171.148 192.676C-170.488 192.077 -169.621 191.757 -168.73 191.785C-167.839 191.813 -166.993 192.185 -166.372 192.825C-165.75 193.464 -165.401 194.319 -165.399 195.211C-165.399 195.285 -165.399 195.36 -165.407 195.435" fill="#F4831F"/>
</svg>
