<svg width="50" height="50" viewBox="0 0 50 50" fill="none" xmlns="http://www.w3.org/2000/svg">
<path d="M37.0348 16.6125L31.1828 13.4742C31.5408 13.3267 31.7933 12.9749 31.7933 12.5638V8.13114C31.7933 7.58711 31.3512 7.14656 30.8075 7.14656H30.164V5.5088H30.8739C31.2851 5.5088 31.6183 5.1753 31.6183 4.76437V0.744433C31.6183 0.333208 31.2851 0 30.8739 0H21.9814C21.7839 0 21.5945 0.0781655 21.455 0.217821L19.9391 1.73378C19.7994 1.87344 19.721 2.06268 19.721 2.2601V2.54328H14.7364C14.6277 2.54328 14.5241 2.59092 14.4535 2.67385L12.1513 5.36915C12.0869 5.44419 12.0555 5.54156 12.0631 5.63983C12.071 5.73839 12.1175 5.82966 12.1925 5.89368L13.5511 7.05425C13.6185 7.11187 13.7046 7.14328 13.7927 7.14328C13.8026 7.14328 13.8122 7.14298 13.8221 7.14209C13.9203 7.1345 14.0118 7.08805 14.0759 7.01301L15.7314 5.07435H19.7903C19.9083 5.33014 20.1652 5.5088 20.4654 5.5088H21.1754V7.14656H20.5319C19.9879 7.14656 19.5459 7.58711 19.5459 8.13114V12.5638C19.5459 12.9749 19.7984 13.3267 20.1565 13.4742L14.3043 16.6125C13.7484 16.9105 13.4015 17.4903 13.4015 18.1214V48.2878C13.4015 49.2335 14.1679 50 15.1137 50H36.2259C37.1717 50 37.9381 49.2335 37.9381 48.2878V18.1214C37.938 17.4905 37.5908 16.9105 37.0348 16.6125ZM25.6697 38.1873C22.7728 38.1873 20.416 35.8305 20.416 32.9336C20.416 29.6904 25.0788 25.1386 25.2771 24.9464C25.4958 24.7347 25.8433 24.7347 26.0619 24.9464C26.2605 25.1386 30.9233 29.6904 30.9233 32.9336C30.9235 35.8305 28.5666 38.1873 25.6697 38.1873Z" fill="white"/>
<path d="M25.6852 35.1614C24.4096 35.1614 23.3717 34.1235 23.3717 32.8478C23.3717 32.5672 23.1443 32.3398 22.8637 32.3398C22.583 32.3398 22.356 32.5672 22.356 32.8478C22.356 34.6836 23.8494 36.1771 25.6852 36.1771C25.9659 36.1771 26.1932 35.9497 26.1932 35.6694C26.1934 35.3887 25.9659 35.1614 25.6852 35.1614Z" fill="white"/>
</svg>
