<svg width="50" height="50" viewBox="0 0 50 50" fill="none" xmlns="http://www.w3.org/2000/svg">
<path d="M25.0074 13.3931C28.2007 13.3931 30.8975 13.6535 33.0977 14.1744C35.2979 14.6952 36.97 15.4595 38.1141 16.4671C38.6468 16.9363 39.0554 17.4546 39.34 18.022L42.5462 18.0224C43.5587 18.0224 44.4203 18.2219 45.1311 18.6211C45.8417 19.0203 46.3845 19.5898 46.7593 20.3297C47.1341 21.0696 47.3216 21.9556 47.3216 22.9876C47.3216 24.555 46.9662 25.9399 46.2553 27.1422C45.5447 28.3446 44.5493 29.2841 43.269 29.9607C42.0802 30.589 40.7088 30.9256 39.1549 30.9705L38.6565 30.9766C37.937 31.9487 36.9384 32.7881 35.6608 33.4947C34.3319 34.2298 32.7644 34.7969 30.9584 35.196C29.1524 35.5952 27.1687 35.7948 25.0074 35.7948C22.8364 35.7948 20.8479 35.5952 19.0419 35.196C17.2359 34.7969 15.6685 34.2298 14.3396 33.4947C13.1129 32.8162 12.1434 32.0154 11.431 31.0922L11.3448 30.9752L11.2217 30.9757C9.63065 30.9757 8.22634 30.6839 7.00882 30.1005L6.73116 29.9607C5.45092 29.2841 4.45546 28.3446 3.74477 27.1422C3.03406 25.9399 2.67871 24.555 2.67871 22.9876C2.67871 21.9556 2.86612 21.0696 3.24094 20.3297C3.61577 19.5898 4.15853 19.0203 4.86925 18.6211C5.50887 18.2619 6.27072 18.0643 7.15481 18.0283L7.45404 18.0224L10.6602 18.022C10.9449 17.4546 11.3535 16.9363 11.8862 16.4671C13.0301 15.4595 14.7047 14.6952 16.9098 14.1744C19.1149 13.6535 21.8141 13.3931 25.0074 13.3931ZM10.1698 20.3734L7.45404 20.3735C6.67519 20.3735 6.07646 20.6072 5.65783 21.0745C5.2392 21.5418 5.02988 22.1795 5.02988 22.9876C5.02988 24.0779 5.28057 25.0491 5.78195 25.9009C6.28334 26.7528 6.98187 27.4197 7.87753 27.9016C8.58785 28.2838 9.38695 28.5144 10.2748 28.5935C10.2227 28.3201 10.19 28.0414 10.1769 27.7571L10.1703 27.4708L10.1698 20.3734ZM42.5462 20.3735L39.8296 20.3734L39.8299 27.4708C39.8299 27.8551 39.7949 28.229 39.7249 28.5925C40.6208 28.5153 41.4222 28.2845 42.1299 27.9016C43.0207 27.4197 43.7169 26.7528 44.2183 25.9009C44.7196 25.0491 44.9702 24.0779 44.9702 22.9876C44.9702 22.1795 44.761 21.5418 44.3424 21.0745C43.9586 20.6461 43.4235 20.4141 42.7371 20.3784L42.5462 20.3735ZM31.7105 25.8644H18.3044C17.9734 25.8644 17.6887 25.9837 17.4501 26.2222C17.2116 26.4607 17.0923 26.7504 17.0923 27.0911C17.0923 27.4221 17.2116 27.7069 17.4501 27.9454C17.6546 28.1499 17.893 28.2667 18.1654 28.2959L18.3044 28.3032H31.7105C32.0513 28.3032 32.3409 28.1839 32.5794 27.9454C32.8178 27.7069 32.9371 27.4221 32.9371 27.0911C32.9371 26.7504 32.8178 26.4607 32.5794 26.2222C32.375 26.0178 32.133 25.9009 31.8534 25.8717L31.7105 25.8644ZM31.7105 20.2421H18.3044C17.9734 20.2421 17.6887 20.3614 17.4501 20.5999C17.2116 20.8384 17.0923 21.1232 17.0923 21.4542C17.0923 21.7949 17.2116 22.0846 17.4501 22.3231C17.6546 22.5275 17.893 22.6444 18.1654 22.6736L18.3044 22.6809H31.7105C32.0513 22.6809 32.3409 22.5616 32.5794 22.3231C32.8178 22.0846 32.9371 21.7949 32.9371 21.4542C32.9371 21.1232 32.8178 20.8384 32.5794 20.5999C32.375 20.3954 32.133 20.2786 31.8534 20.2494L31.7105 20.2421Z" fill="white"/>
</svg>
