<svg width="45" height="45" viewBox="0 0 45 45" fill="none" xmlns="http://www.w3.org/2000/svg">
<g clip-path="url(#clip0_1_471)">
<path d="M7.84875 40.3716H4.521C2.22675 40.3716 0 38.6841 0 35.7493C0 35.7493 0 14.7268 0 14.6736C0 12.0591 2.1735 10.0806 4.52137 10.0806H7.84912L7.84875 40.3716Z" fill="white"/>
<path d="M28.8237 10.1338V5.78601C28.8237 4.20576 27.432 3.20264 25.746 3.20264C25.746 3.20264 19.2608 3.20264 19.2825 3.20264C17.5965 3.20264 16.1813 4.20576 16.1813 5.78601V10.1338H10.9155V40.4248H34.1419V10.1338H28.8237ZM25.7284 10.1338H19.2V6.04776H25.7284V10.1338Z" fill="white"/>
<path d="M37.1558 40.3716H40.4835C42.7778 40.3716 45.0045 38.6841 45.0045 35.7493C45.0045 35.7493 45.0045 14.7268 45.0045 14.6736C45.0045 12.0591 42.831 10.0806 40.4835 10.0806H37.1558V40.3716Z" fill="white"/>
</g>
<defs>
<clipPath id="clip0_1_471">
<rect width="45" height="45" fill="white"/>
</clipPath>
</defs>
</svg>
