<svg width="45" height="45" viewBox="0 0 45 45" fill="none" xmlns="http://www.w3.org/2000/svg">
<g clip-path="url(#clip0_1_502)">
<path d="M39.375 30H37.5V20.625C37.5 12.3543 30.7706 5.625 22.5 5.625C14.2294 5.625 7.49994 12.3543 7.49994 20.625V30.0001H5.62497C4.58813 30.0001 3.75 30.84 3.75 31.875V43.125C3.75 44.16 4.58813 45 5.62497 45H39.375C40.4118 45 41.2499 44.16 41.2499 43.125V31.875C41.2499 30.84 40.4118 30 39.375 30ZM22.5 11.25C23.535 11.25 24.3749 12.09 24.3749 13.125C24.3749 14.16 23.535 14.9999 22.5 14.9999C21.465 14.9999 20.625 14.16 20.625 13.125C20.625 12.09 21.465 11.25 22.5 11.25ZM22.5 26.25C23.535 26.25 24.3749 27.09 24.3749 28.125C24.3749 29.16 23.535 30 22.5 30C21.465 30 20.625 29.16 20.625 28.125C20.625 27.09 21.465 26.25 22.5 26.25ZM18.7499 26.25C17.7149 26.25 16.875 25.4101 16.875 24.3751C16.875 23.3401 17.7149 22.5 18.7499 22.5C19.7849 22.5 20.6249 23.34 20.6249 24.375C20.6249 25.41 19.7849 26.25 18.7499 26.25ZM22.5 22.5C21.465 22.5 20.625 21.66 20.625 20.625C20.625 19.59 21.465 18.7501 22.5 18.7501C23.535 18.7501 24.3749 19.59 24.3749 20.625C24.3749 21.66 23.535 22.5 22.5 22.5ZM18.7499 15C19.7849 15 20.6249 15.84 20.6249 16.875C20.6249 17.91 19.7849 18.75 18.7499 18.75C17.7149 18.75 16.875 17.91 16.875 16.875C16.875 15.84 17.7149 15 18.7499 15ZM15 18.75C16.035 18.75 16.875 19.5899 16.875 20.6249C16.875 21.6599 16.035 22.5 15 22.5C13.965 22.5 13.125 21.66 13.125 20.625C13.125 19.59 13.965 18.75 15 18.75ZM15 26.25C16.035 26.25 16.875 27.09 16.875 28.125C16.875 29.16 16.035 30 15 30C13.965 30 13.125 29.16 13.125 28.125C13.125 27.09 13.965 26.25 15 26.25ZM37.5 41.25H7.49994V33.75H9.37491H35.6249H37.4999V41.25H37.5Z" fill="white"/>
<path d="M22.5 3.75003C23.5368 3.75003 24.3749 2.91006 24.3749 1.87506C24.3749 0.840059 23.5368 0 22.5 0C21.4631 0 20.625 0.839971 20.625 1.87497C20.625 2.90997 21.4631 3.75003 22.5 3.75003Z" fill="white"/>
<path d="M43.125 15H41.2501C40.2131 15 39.375 15.84 39.375 16.875C39.375 17.91 40.2131 18.7499 41.25 18.7499H43.1249C44.1618 18.7499 44.9999 17.91 44.9999 16.875C44.9999 15.84 44.1619 15 43.125 15Z" fill="white"/>
<path d="M37.4999 7.49993C37.9799 7.49993 38.4599 7.31615 38.8256 6.95052L40.7005 5.07555C41.4336 4.34246 41.4336 3.15743 40.7005 2.42433C39.9674 1.69124 38.7824 1.69124 38.0493 2.42433L36.1743 4.2993C35.4412 5.0324 35.4412 6.21743 36.1743 6.95052C36.5399 7.31624 37.0198 7.49993 37.4999 7.49993Z" fill="white"/>
<path d="M5.625 16.875C5.625 15.84 4.78687 15 3.75003 15H1.87497C0.838125 15 0 15.84 0 16.875C0 17.91 0.838125 18.7499 1.87497 18.7499H3.74994C4.78688 18.7499 5.625 17.91 5.625 16.875Z" fill="white"/>
<path d="M6.1743 6.95061C6.53993 7.31624 7.0199 7.50002 7.49996 7.50002C7.97993 7.50002 8.45999 7.31624 8.82561 6.95061C9.55871 6.21752 9.55871 5.03249 8.82561 4.29939L6.95055 2.42433C6.21746 1.69124 5.03243 1.69124 4.29933 2.42433C3.56624 3.15743 3.56624 4.34246 4.29933 5.07555L6.1743 6.95061Z" fill="white"/>
</g>
<defs>
<clipPath id="clip0_1_502">
<rect width="45" height="45" fill="white"/>
</clipPath>
</defs>
</svg>
