<svg width="50" height="50" viewBox="0 0 50 50" fill="none" xmlns="http://www.w3.org/2000/svg">
<g clip-path="url(#clip0_1_454)">
<path d="M28.9835 37.5114C31.6806 38.435 34.0621 39.0233 37.484 40.0748C36.1694 56.6849 20.4627 50.0886 28.9835 37.5114ZM43.0071 22.2529C42.83 17.2656 41.9515 10.7234 34.9544 11.7485C31.6743 12.6045 29.2507 16.2068 28.1108 22.422C27.4848 25.8392 27.8488 30.6358 28.5873 33.5112C29.2616 35.5374 29.0323 35.4129 29.757 35.7977C32.5618 36.4295 35.3386 37.129 38.1663 37.8423C41.0389 35.8137 43.3981 25.0439 43.0071 22.2529ZM21.4133 21.8701C22.1512 18.9945 22.5152 14.1978 21.8895 10.781C20.7505 4.56554 18.3266 0.962627 15.046 0.107174C8.04878 -0.917933 7.17034 5.62421 6.99321 10.6118C6.6022 13.4023 8.96175 24.1728 11.8346 26.201C14.6621 25.4877 17.4385 24.7888 20.2442 24.1564C20.9681 23.772 20.7388 23.8964 21.4133 21.8701ZM12.5161 28.4341C13.8301 45.044 29.5369 38.4476 21.0163 25.8707C18.3192 26.7944 15.9378 27.3826 12.5161 28.4341Z" fill="white"/>
</g>
<defs>
<clipPath id="clip0_1_454">
<rect width="50" height="50" fill="white"/>
</clipPath>
</defs>
</svg>
