<svg width="45" height="45" viewBox="0 0 45 45" fill="none" xmlns="http://www.w3.org/2000/svg">
<g clip-path="url(#clip0_1_483)">
<path d="M6.82151 42.6216L5.46392 44.0478C4.37284 45.194 2.6462 45.3248 1.6068 44.3359C0.566067 43.3454 0.608727 41.6162 1.69948 40.4667L3.05724 39.0396L6.82151 42.6216Z" fill="white"/>
<path d="M7.45123 38.1945C7.30635 38.0576 7.301 37.8294 7.43852 37.6879L26.9423 17.1817C27.0783 17.0382 27.3041 17.0338 27.448 17.1695C27.5931 17.306 27.5974 17.5317 27.4611 17.6749L7.95646 38.1796C7.82095 38.3229 7.59393 38.329 7.45123 38.1945Z" fill="white"/>
<path d="M41.9199 2.34375L41.5297 1.97269C38.6623 -0.753196 34.1293 -0.640105 31.3998 2.22513L12.8854 21.6924C10.7214 23.9686 10.3539 27.2928 11.7252 29.9306L3.76904 38.2947L7.53181 41.8749L15.4886 33.5092C18.1934 34.7477 21.4938 34.2129 23.6578 31.939L42.1743 12.4724C44.9002 9.60546 44.7871 5.07047 41.9199 2.34375ZM41.5493 9.97953C41.3445 10.1942 41.0044 10.2044 40.7886 9.99844L38.4034 7.7296L34.8653 11.4509L37.2487 13.7184C37.4647 13.9238 37.4715 14.2646 37.2678 14.4792C37.0615 14.6922 36.7215 14.7014 36.5074 14.4965L34.1258 12.2258L30.5859 15.9459L32.9693 18.2156C33.1843 18.4202 33.1923 18.7608 32.9884 18.9739C32.783 19.1896 32.4449 19.1986 32.2264 18.9947L29.8444 16.7258L26.3045 20.4463L28.6879 22.7146C28.9051 22.92 28.9119 23.2583 28.7065 23.4751C28.5026 23.6894 28.1638 23.6981 27.9475 23.4935L25.5632 21.2247L22.0238 24.9463L24.4094 27.2146C24.6235 27.4192 24.6336 27.7582 24.4276 27.975C24.2242 28.1895 23.8833 28.1982 23.6691 27.9936L21.2844 25.7261L8.73499 38.9207C8.18928 39.4925 7.28305 39.5164 6.7089 38.971C6.13642 38.4263 6.11266 37.5201 6.65754 36.9458L19.2087 23.7501L17.2666 21.9051C17.0533 21.6986 17.0436 21.3587 17.2477 21.145C17.4528 20.9299 17.7944 20.921 18.0082 21.1261L19.9509 22.9722L23.4866 19.2546L21.5453 17.4074C21.3297 17.2023 21.3205 16.8625 21.5264 16.6477C21.7315 16.4317 22.0713 16.4239 22.2864 16.6298L24.2277 18.4749L27.7668 14.7549L25.8269 12.9077C25.6106 12.7036 25.6027 12.3618 25.8075 12.1488C26.0138 11.9319 26.3537 11.925 26.5682 12.1291L28.5089 13.9752L32.0489 10.2552L30.1073 8.40864C29.8923 8.20371 29.8822 7.86193 30.0879 7.64863C30.2925 7.43232 30.6334 7.42395 30.8485 7.62789L32.7875 9.47531L36.3274 5.75604L34.386 3.91045C34.1708 3.70451 34.1621 3.36474 34.3659 3.1496C34.5722 2.93329 34.9136 2.92476 35.1281 3.1307L37.0707 4.97712L37.5212 4.502C38.0648 3.92852 38.971 3.9061 39.5461 4.45098C40.1205 4.99686 40.143 5.90309 39.597 6.47607L39.1456 6.95085L41.5299 9.21968C41.743 9.42445 41.7537 9.76339 41.5493 9.97953Z" fill="white"/>
</g>
<defs>
<clipPath id="clip0_1_483">
<rect width="45" height="45" fill="white"/>
</clipPath>
</defs>
</svg>
