<svg width="115" height="115" viewBox="0 0 115 115" fill="none" xmlns="http://www.w3.org/2000/svg">
<g clip-path="url(#clip0_1_1240)">
<path d="M115 0H0V115H115V0Z" fill="white" fill-opacity="0.01"/>
<path d="M51.6266 13.868C55.1262 11.3152 59.8741 11.3152 63.3738 13.868L67.453 16.8436C69.1639 18.0916 71.2278 18.7623 73.3455 18.7582L78.3946 18.7486C82.7264 18.7404 86.5676 21.5311 87.8983 25.6534L89.4495 30.4585C90.1001 32.4739 91.3757 34.2296 93.0913 35.4711L97.1817 38.4311C100.691 40.9706 102.158 45.4861 100.812 49.6033L99.2424 54.4023C98.5842 56.4151 98.5842 58.5852 99.2424 60.598L100.812 65.397C102.158 69.5143 100.691 74.0298 97.1817 76.5693L93.0913 79.5293C91.3757 80.7708 90.1001 82.5265 89.4495 84.5418L87.8983 89.3469C86.5676 93.4692 82.7265 96.2599 78.3947 96.2517L73.3455 96.2422C71.2278 96.2382 69.1639 96.9088 67.453 98.1567L63.3737 101.132C59.8741 103.685 55.1263 103.685 51.6266 101.132L47.5473 98.1567C45.8364 96.9088 43.7725 96.2382 41.6549 96.2422L36.6056 96.2517C32.2738 96.2599 28.4328 93.4692 27.102 89.3469L25.5509 84.5418C24.9003 82.5265 23.6247 80.7708 21.909 79.5293L17.8186 76.5693C14.3092 74.0298 12.8421 69.5143 14.1885 65.397L15.7579 60.5981C16.4161 58.5853 16.4161 56.4151 15.7579 54.4022L14.1885 49.6033C12.8421 45.4861 14.3092 40.9706 17.8186 38.4311L21.909 35.4711C23.6247 34.2296 24.9003 32.4739 25.5508 30.4585L27.102 25.6534C28.4328 21.5311 32.2739 18.7404 36.6057 18.7486L41.6548 18.7582C43.7725 18.7623 45.8365 18.0916 47.5474 16.8436L51.6266 13.868Z" fill="#F36523"/>
<path d="M40.7285 57.5002L52.7077 69.4793L76.666 45.521" stroke="white" stroke-width="6.13333" stroke-linecap="round" stroke-linejoin="round"/>
</g>
<defs>
<clipPath id="clip0_1_1240">
<rect width="115" height="115" fill="white"/>
</clipPath>
</defs>
</svg>
